<?xml version="1.0" encoding="UTF-8"?>
<!-- Generator: Adobe Illustrator 25.2.3, SVG Export Plug-In . SVG Version: 6.00 Build 0)  -->
<svg xmlns="http://www.w3.org/2000/svg" xmlns:xlink="http://www.w3.org/1999/xlink" version="1.1" id="Capa_1" x="0px" y="0px" viewBox="0 0 512 512" style="enable-background:new 0 0 512 512;" xml:space="preserve" width="512" height="512">
<g>
	<g>
		<g>
			<g>
				<path style="fill-rule:evenodd;clip-rule:evenodd;fill:#F7BE4A;" d="M393.905,119.445c-1.711,1.397-2.045,3.68-2.924,5.652      c-1.663,3.725-3.601,7.084-8.321,7.613c-2.494,0.278-4.803-0.534-5.285,1.21c-0.436,1.531,1.558,2.594,2.049,3.123      c2.087,2.23,3.698,4.571,3.524,8.448c-0.232,4.854-3.348,11.197-0.344,11.918c2.207,0.534,3.611-3.771,4.38-5.168      c2.483-4.513,3.926-7.81,8.596-9.352c1.425-0.468,5.057-0.058,5.447-2.204c0.39-2.187-2.584-2.984-3.436-4.11      c-1.333-1.744-2.183-4.406-2.145-7.466c0.045-2.878,1.207-6.484,0.83-8.532C396.26,119.635,395.362,118.61,393.905,119.445z"/>
			</g>
			<g>
				<path style="fill-rule:evenodd;clip-rule:evenodd;fill:#F7BE4A;" d="M59.667,447.379c1.711,1.395,2.045,3.68,2.924,5.649      c1.663,3.728,3.601,7.087,8.321,7.613c2.494,0.278,4.802-0.534,5.285,1.212c0.436,1.531-1.558,2.594-2.05,3.123      c-2.085,2.23-3.698,4.568-3.523,8.446c0.231,4.854,3.348,11.199,0.344,11.921c-2.207,0.534-3.612-3.773-4.38-5.168      c-2.483-4.513-3.926-7.81-8.596-9.352c-1.425-0.471-5.057-0.061-5.447-2.204c-0.391-2.187,2.584-2.984,3.436-4.11      c1.332-1.746,2.183-4.406,2.145-7.466c-0.044-2.877-1.206-6.487-0.83-8.532C57.312,447.566,58.209,446.543,59.667,447.379z"/>
			</g>
			<g>
				<path style="fill-rule:evenodd;clip-rule:evenodd;fill:#F7BE4A;" d="M156.359,77.562c-1.834,1.083-4.667,1.777-4.3,4.29      c0.473,3.164,4.406,2.106,6.36,3.174c3.29,1.797,3.743,7.051,5.726,11.095c0.52,1.05,1.081,2.511,2.925,2.263      c2.359-0.327,2.197-2.673,2.079-5.411c-0.219-4.91,0.544-9.354,3.247-11.668c1.63-1.397,3.99-1.232,3.6-3.91      c-0.384-2.65-2.742-1.794-4.966-2.402c-3.541-0.982-5.285-5.08-6.889-9.134c-0.359-0.909-0.605-2.169-0.966-2.61      c-1.31-1.569-4.476-1.189-5.096,1.152c-0.352,1.303,0.385,2.888,0.534,4.447C158.938,72.404,158.247,75.145,156.359,77.562z"/>
			</g>
			<g>
				<path style="fill-rule:evenodd;clip-rule:evenodd;fill:#F7BE4A;" d="M399.187,462.529c-1.306,0.344-3.155,0.273-3.367,1.873      c-0.261,2.012,2.323,2.047,3.331,3.037c1.696,1.671,1.062,4.955,1.569,7.767c0.137,0.731,0.225,1.719,1.393,1.891      c1.497,0.208,1.806-1.253,2.207-2.944c0.717-3.034,1.955-5.616,4.006-6.56c1.236-0.567,2.649-0.056,2.874-1.759      c0.227-1.686-1.362-1.572-2.613-2.331c-1.991-1.212-2.345-4.014-2.621-6.768c-0.061-0.615,0.008-1.43-0.137-1.756      c-0.526-1.187-2.525-1.503-3.308-0.182c-0.442,0.734-0.268,1.827-0.448,2.804C401.656,459.825,400.758,461.379,399.187,462.529z      "/>
			</g>
			<g>
				<path style="fill-rule:evenodd;clip-rule:evenodd;fill:#F7BE4A;" d="M367.569,81.965c-0.983,2.751,0.299,4.401-1.014,7.385      c-0.735,1.681-4.222,2.728-4.219,4.553c0.009,2.432,4.047,2.126,5.345,3.812c1.15,1.478,0.457,5.191,2.946,5.297      c2.53,0.101,1.896-4.809,3.247-7.157c0.862-1.526,3.629-1.999,3.426-4.141c-0.146-1.448-3.145-1.822-4.22-2.683      c-2.245-1.797-1.646-5.242-2.987-7.304C368.998,81.209,368.482,81.616,367.569,81.965z"/>
			</g>
			<g>
				<path style="fill-rule:evenodd;clip-rule:evenodd;fill:#F7BE4A;" d="M143.485,142.249c-0.487,2.88,1.064,4.28,0.293,7.451      c-0.429,1.782-3.68,3.422-3.359,5.219c0.434,2.397,4.358,1.384,5.929,2.817c1.392,1.255,1.358,5.034,3.827,4.702      c2.509-0.344,1.026-5.069,1.946-7.613c0.582-1.658,3.224-2.607,2.65-4.677c-0.396-1.399-3.414-1.245-4.624-1.903      c-2.526-1.379-2.539-4.874-4.219-6.669C144.761,141.257,144.323,141.745,143.485,142.249z"/>
			</g>
			<g>
				<path style="fill-rule:evenodd;clip-rule:evenodd;fill:#F7BE4A;" d="M111.724,458.277c-0.983,2.751,0.3,4.399-1.012,7.388      c-0.735,1.678-4.223,2.726-4.22,4.553c0.009,2.432,4.048,2.126,5.347,3.809c1.149,1.478,0.456,5.191,2.945,5.297      c2.531,0.101,1.897-4.809,3.248-7.158c0.862-1.526,3.628-1.997,3.424-4.14c-0.146-1.448-3.143-1.822-4.219-2.683      c-2.245-1.797-1.647-5.239-2.988-7.301C113.153,457.523,112.637,457.927,111.724,458.277z"/>
			</g>
		</g>
		<g>
			<g>
				<polygon style="fill-rule:evenodd;clip-rule:evenodd;fill:#E34E6A;" points="267.327,511.104 248.651,511.104 229.414,143.917       286.511,143.917     "/>
			</g>
			<g>
				<g>
					<g>
						<path style="fill-rule:evenodd;clip-rule:evenodd;fill:#1A4E72;" d="M356.442,127.398        c-20.338,1.455-41.132,2.536-61.424,4.032c-8.88-26.139-18.929-54.827-28.691-81.948c-0.609-1.688-1.886-3.634-2.021-5.036        c-0.249-2.579,1.072-6.135,0.809-9.741c-0.728-9.984-4.649-19.306-10.506-25.185c-0.524-0.529-2.354-0.921-1.616-2.017        c9.033-4.333,16.56-8.223,31.519-7.388c13.267,0.741,22.772,5.416,30.712,11.754c8.521,6.803,16.085,17.516,16.165,29.556        c0.039,5.991-1.787,12.665,0.404,17.797c2.966,6.957,10.615,11.607,12.932,19.48c0.473,1.612,0.753,3.758,0.809,5.707        c0.183,6.628-4.113,14.046-2.021,21.834C345.692,114.358,356.226,118.701,356.442,127.398z"/>
					</g>
					<g>
						<g>
							<path style="fill:#FFCBD5;" d="M236.897,105.348c0,0-8.643-9.104-11.67-25.155c2.313-17.402,0.74-47.74,13.714-55.897         c19.088-12.004,48.689-6.952,62.39,5.978c11.759,11.111,22.934,36.303,24.559,61.711c1.64,25.701-7.775,47.454-38.704,39.095         c-2.046,10.331-3.053,24.385-3.815,28.141c-2.485,12.252-34.812,30.095-56.136-4.703         C227.3,155.721,236.923,111.85,236.897,105.348z"/>
						</g>
						<g>
							<g>
								<path style="fill-rule:evenodd;clip-rule:evenodd;fill:#FF8D9D;" d="M287.408,131.14          c-9.543-2.01-20.888-13.995-20.888-13.995s0.519,19.379,18.135,30.138L287.408,131.14z"/>
							</g>
							<g>
								<g>
									<g>
										<path style="fill-rule:evenodd;clip-rule:evenodd;fill:#FFFFFF;" d="M271.608,76.572c2.545-3.44,5.246-5.219,7.756-6.026            l3.369,2.103l0.875,4.743c-0.59,0.243-1.217,0.477-1.906,0.676C276.931,79.442,271.608,76.572,271.608,76.572"/>
									</g>
									<g>
										<path style="fill-rule:evenodd;clip-rule:evenodd;fill:#1A4E72;" d="M290.135,72.098c0,0-4.868-3.422-10.778-1.549            c-0.119,0.486-0.416,1.483-0.392,2.007c0.171,2.402,2.117,4.29,4.644,4.837C288.526,75.367,290.135,72.098,290.135,72.098            "/>
									</g>
								</g>
								<g>
									<g>
										<path style="fill-rule:evenodd;clip-rule:evenodd;fill:#FFFFFF;" d="M305.235,70.678c2.344-3.164,4.881-4.831,7.197-5.583            l4.59,2.193l-0.641,4.156c-0.549,0.228-1.14,0.446-1.781,0.633C310.178,73.368,305.235,70.678,305.235,70.678"/>
									</g>
									<g>
										<path style="fill-rule:evenodd;clip-rule:evenodd;fill:#1A4E72;" d="M322.412,66.535c0,0-4.505-3.169-9.979-1.443            c-0.122,0.466-0.4,1.382-0.376,1.873c0.158,2.215,1.965,3.984,4.316,4.487C320.916,69.564,322.412,66.535,322.412,66.535"/>
									</g>
								</g>
								<g>
									<path style="fill:#FF8D9D;" d="M285.47,87.2c2.788,3.52,2.179,8.648-1.336,11.455c-3.542,2.771-8.661,2.179-11.457-1.357           c-2.785-3.533-2.19-8.663,1.346-11.447C277.549,83.069,282.671,83.654,285.47,87.2"/>
								</g>
								<g>
									<path style="fill:#FF8D9D;" d="M318.387,88.445c1.807,2.278,4.762,3.351,7.472,3.06           c-0.019-0.339-0.771-10.863-2.335-16.127c-1.379,0.187-2.617,0.678-3.78,1.6C316.201,79.779,315.603,84.901,318.387,88.445           z"/>
								</g>
								<g>
									<path style="fill-rule:evenodd;clip-rule:evenodd;fill:#1A4E72;" d="M267.097,69.091l2.431,2.032           c6.269-7.443,16.586-6.843,20.341-5.439l1.11-2.959C285.141,60.521,273.876,61.05,267.097,69.091z"/>
								</g>
								<g>
									<path style="fill-rule:evenodd;clip-rule:evenodd;fill:#1A4E72;" d="M300.954,63.659l2.417,2.055           c5.791-6.874,15.311-6.322,18.753-5.009l1.122-2.981C317.811,55.697,307.292,56.171,300.954,63.659z"/>
								</g>
								<g>
									<g>
										<path style="fill-rule:evenodd;clip-rule:evenodd;fill:#FF8D9D;" d="M300.937,72.267            c1.798-0.696,9.856,15.623,9.736,17.524c-0.182,2.389-7.97,4.981-8.735,4.168            C299.771,91.641,298.236,73.313,300.937,72.267"/>
									</g>
									<g>
										<path style="fill:#FF8D9D;" d="M316.859,105.556c-8.343,6.279-18.763,2.602-24.9-3.437l2.569-2.594            c5.045,4.986,13.525,8.091,20.157,3.128L316.859,105.556z"/>
									</g>
								</g>
							</g>
						</g>
					</g>
					<g>
						<path style="fill-rule:evenodd;clip-rule:evenodd;fill:#1A4E72;" d="M314.422,49.142        C282.049,53.118,262.831,38.447,248,20.791c4.953-6.17,11.574-11.718,21.6-13.059c8.138-1.088,16.713,1.891,22.214,5.783        c6.04,4.275,12.472,11.938,16.56,19.546C310.834,37.642,314.08,43.59,314.422,49.142z"/>
					</g>
					<g>
						<path style="fill-rule:evenodd;clip-rule:evenodd;fill:#1A4E72;" d="M245.783,130.055        c-25.686,0.129-49.313,1.749-74.812,2.014c-0.363-14.768,19.334-19.584,23.235-31.236c2.333-6.97-3.149-16.248-2.789-24.178        c0.105-2.316,0.572-5.264,1.859-7.727c3.504-6.697,11.892-9.701,14.869-16.456c0.138-0.312,0.264-0.623,0.38-0.933        c0.76-2.034,6.065-4.011,6.187-5.907c0.139-2.142-4.955-4.181-4.888-6.08c0.027-0.752,0.078-1.483,0.18-2.189        c2.192-15.289,15.318-28.602,35.779-31.905c20.216-3.267,31.999,9.534,33.456,21.49c2.036,16.724-8.761,27.154-18.587,36.273        c-2.855,2.65-6.749,5.328-7.899,8.061c-3.717,8.823,5.405,17.595,5.111,27.538        C257.491,111.433,245.209,116.292,245.783,130.055z"/>
					</g>
				</g>
				<g>
					<g>
						<path style="fill-rule:evenodd;clip-rule:evenodd;fill:#FFFFFF;" d="M314.08,22.082c4.968-0.413-1.679-11.485-4.339-7.36        C308.352,16.871,312.011,20.822,314.08,22.082z"/>
					</g>
					<g>
						<path style="fill-rule:evenodd;clip-rule:evenodd;fill:#FFFFFF;" d="M321.908,25.861c-0.843-0.633-2.917-1.473-4.057,0.316        c-1.492,2.338,1.044,7.291,1.677,9.448c0.768,2.622,1.038,7.901,4.033,8.608c4.273,1.01,2.618-6.763,1.939-9.413        c-0.363-1.41-0.854-2.754-1.219-3.93C323.655,28.877,323.533,27.078,321.908,25.861z"/>
					</g>
				</g>
				<g>
					<g>
						<path style="fill-rule:evenodd;clip-rule:evenodd;fill:#FFFFFF;" d="M250.578,12.267c-1.235,2.956-5.616,6.125-10.105,8.979        c-1.92,1.217-5.063,3.146-6.349,1.554c-1.545-1.918,1.677-4.672,2.828-5.654c3.661-3.1,8.708-6.112,11.862-6.925        C250.974,9.878,251.177,10.84,250.578,12.267z"/>
					</g>
					<g>
						<path style="fill-rule:evenodd;clip-rule:evenodd;fill:#FFFFFF;" d="M243.497,25.42c3.952,3.328-4.683,10.619-7.07,7.059        c-1.031-1.551,1.828-6.634,4.43-7.646C241.797,24.479,242.809,24.841,243.497,25.42z"/>
					</g>
					<g>
						<path style="fill-rule:evenodd;clip-rule:evenodd;fill:#FFFFFF;" d="M222.148,30.928c1.52,1.022,0.988,3.632-0.458,5.862        c-1.162,1.792-4.201,4.695-5.739,2.774c-0.683-0.848-0.533-2.994,0.621-4.877C217.923,32.476,220.193,29.599,222.148,30.928z"/>
					</g>
				</g>
			</g>
			<g>
				<g>
					<g>
						<path style="fill-rule:evenodd;clip-rule:evenodd;fill:#BAD6E9;" d="M229.414,143.917c0.286-0.061,0.318,0.132,0.337,0.337        c2.127,30.725,3.261,61.053,5.708,91.014c2.432,29.756,5.3,59.177,7.724,88.996c2.394,29.45,5.186,60.354,4.702,92.021        c-0.478,31.302-0.486,63.275,0.672,95.045c-38.089-0.514-78.156-1.524-115.195,0.671c1.387-28.288,3.513-54.979,7.052-81.611        c5.058-38.052,15.113-74.178,15.113-117.545c0-35.273-9.792-64.642-13.769-97.057c-1.327-10.822-3.984-25.076,0.672-33.919        c2.959-5.621,10.551-10.017,17.465-13.437C181.572,157.715,204.009,150.229,229.414,143.917z"/>
					</g>
					<g>
						<g>
							<path style="fill-rule:evenodd;clip-rule:evenodd;fill:#BAD6E9;" d="M229.414,139.214c1.602,0.349,1.227,2.673,1.344,3.695         c1.165,10.217,1.51,21.379,2.351,32.241c2.588,33.438,5.158,67.139,8.059,100.416c0.208,2.389,1.468,5.649-0.672,7.724         c-3.77-0.02-5.458-3.991-7.052-6.717c-5.015-8.564-8.851-18.022-13.434-27.873c-2.688-5.778-5.312-12.212-8.396-19.144         c-2.523-5.674-7.756-14.315-7.052-20.487c0.362-3.174,2.994-6.272,4.703-9.066c1.777-2.913,3.932-5.434,4.701-8.731         c-3.952-1.627-12.181,1.729-14.777-2.688c-1.339-2.278,0.698-7.552,1.679-11.083c2-7.208,3.809-15.213,6.045-22.168         c1.225-3.807,2.555-8.901,5.373-11.08C216.083,141.318,224.422,140.108,229.414,139.214z"/>
						</g>
						<g style="opacity:0.41;">
							<path style="fill-rule:evenodd;clip-rule:evenodd;fill:#FFFFFF;" d="M229.414,139.214c1.602,0.349,1.227,2.673,1.344,3.695         c1.165,10.217,1.51,21.379,2.351,32.241c2.588,33.438,5.158,67.139,8.059,100.416c0.208,2.389,1.468,5.649-0.672,7.724         c-3.77-0.02-5.458-3.991-7.052-6.717c-5.015-8.564-8.851-18.022-13.434-27.873c-2.688-5.778-5.312-12.212-8.396-19.144         c-2.523-5.674-7.756-14.315-7.052-20.487c0.362-3.174,2.994-6.272,4.703-9.066c1.777-2.913,3.932-5.434,4.701-8.731         c-3.952-1.627-12.181,1.729-14.777-2.688c-1.339-2.278,0.698-7.552,1.679-11.083c2-7.208,3.809-15.213,6.045-22.168         c1.225-3.807,2.555-8.901,5.373-11.08C216.083,141.318,224.422,140.108,229.414,139.214z"/>
						</g>
					</g>
				</g>
				<g>
					<g>
						<g>
							<g>
								<path style="fill-rule:evenodd;clip-rule:evenodd;fill:#FFCBD5;" d="M292.855,333.099c3.361,1.174,15.333,2.979,20.47,5.771          c1.996,1.078,4.034,2.941,3.485,4.88c-1.158,4.095-10.472,1.799-13.821,1.463c-5.811-0.602-9.897-0.661-14.834-1.321          c3.667,1.873,15.292,3.553,21.776,6.643c2.704,1.293,5.583,3.288,4.772,5.753c-1.031,3.133-8.895,2.131-11.55,1.873          c-12.773-1.217-27.041-2.478-37.365-1.392c-11.855,1.24-21.948,3.923-32.585,8.792c-2.574,1.174-7.588,4.771-10.287,3.941          c-1.259-0.39-3.44-3.151-4.089-4.297c-2.225-3.958-3.385-9.326-5.12-15.952c-0.664-2.523-1.439-5.011-1.831-8.311          c-0.327-2.675-1.386-7.163-0.993-8.42c0.581-1.962,4.66-4.69,7.103-6.295c7.117-4.652,17.61-10.371,23.596-14.054          c5.2-3.179,10.643-6.53,15.592-9.673c4.676-2.984,19.996-12.857,24.544-7.299c3.746,4.566-12.233,12.351-15.175,15.912          c7.832-1.483,20.842-1.842,33.901,0.952c3.427,0.741,10.702,1.926,10.664,5.052c-0.046,4.293-5.878,3.559-8.595,3.753          c-3.789,0.263-6.561,0.83-9.848,0.478c4.528,1.843,15.333,3.197,20.351,6.125c1.633,0.959,3.252,2.739,2.889,4.272          c-0.852,3.533-6.487,2.121-10.349,1.898c-5.277-0.296-8.713-0.132-12.346-0.415          C293.103,333.185,292.976,333.144,292.855,333.099z"/>
							</g>
						</g>
						<g>
							<g>
								<g>
									<path style="fill-rule:evenodd;clip-rule:evenodd;fill:#BAD6E9;" d="M133.028,336.353           c30.129-7.373,59.194-15.813,87.99-24.514c6.481,22.287,13.781,43.757,21.83,64.482           c-34.415,17.496-66.665,35.716-104.783,50.375c-12.427,4.778-26.384,10.073-41.644,10.073           c-15.254,0-26.243-6.021-32.576-14.775c-6.931-9.582-8.323-23.034-7.052-38.956c2.307-28.938,8.604-54.933,15.448-79.26           c6.765-24.046,16.748-46.158,26.867-67.84c7.066-15.142,15.894-31.872,27.203-43.997           c5.611-6.013,11.519-11.943,20.486-14.439c1.865-0.519,5.893-0.418,8.061,0.671c9.504,4.771,8.567,25.658,7.389,40.302           c-1.277,15.843-3.186,30.436-5.71,43.324C150.881,290.676,141.619,312.945,133.028,336.353z"/>
								</g>
								<g style="opacity:0.41;">
									<path style="fill-rule:evenodd;clip-rule:evenodd;fill:#FFFFFF;" d="M133.028,336.353           c30.129-7.373,59.194-15.813,87.99-24.514c6.481,22.287,13.781,43.757,21.83,64.482           c-34.415,17.496-66.665,35.716-104.783,50.375c-12.427,4.778-26.384,10.073-41.644,10.073           c-15.254,0-26.243-6.021-32.576-14.775c-6.931-9.582-8.323-23.034-7.052-38.956c2.307-28.938,8.604-54.933,15.448-79.26           c6.765-24.046,16.748-46.158,26.867-67.84c7.066-15.142,15.894-31.872,27.203-43.997           c5.611-6.013,11.519-11.943,20.486-14.439c1.865-0.519,5.893-0.418,8.061,0.671c9.504,4.771,8.567,25.658,7.389,40.302           c-1.277,15.843-3.186,30.436-5.71,43.324C150.881,290.676,141.619,312.945,133.028,336.353z"/>
								</g>
							</g>
							<g style="opacity:0.25;">
								<path style="fill:#1A4E72;" d="M89.436,350.843c4.267,0.653,8.056-1.65,11.753-3.024          c10.665-3.958,20.772-8.185,31.858-11.516c1.819-4.955,3.665-9.855,5.501-14.778c-15.116,7.089-32.058,14.915-45.082,23.945          C91.772,346.644,89.123,348.274,89.436,350.843z"/>
							</g>
							<g>
								<g style="opacity:0.25;">
									<path style="fill:#1A4E72;" d="M221.018,311.839c-4.542,1.372-9.095,2.733-13.654,4.092           c0.823,21.434,2.32,44.063,5.236,63.019c0.4,2.599,0.154,6.102,2.832,7.555c3.297,0.909,6.145-0.605,8.815-1.577           c1.92-0.696,3.792-1.313,5.635-1.946c4.297-2.227,8.614-4.449,12.966-6.661C234.799,355.596,227.5,334.126,221.018,311.839           z"/>
								</g>
								<g>
									<path style="fill:#FFFFFF;" d="M232.478,370.31c0,2.619-2.123,4.745-4.745,4.745c-2.621,0-4.746-2.126-4.746-4.745           c0-2.625,2.125-4.746,4.746-4.746C230.354,365.565,232.478,367.686,232.478,370.31z"/>
								</g>
							</g>
						</g>
					</g>
					<g>
						<g>
							<g>
								<path style="fill-rule:evenodd;clip-rule:evenodd;fill:#FFFFFF;" d="M90.698,418.42c-5.015,2.89,7.434,11.237,8.191,5.591          C99.286,421.068,93.493,418.726,90.698,418.42z"/>
							</g>
							<g>
								<path style="fill-rule:evenodd;clip-rule:evenodd;fill:#FFFFFF;" d="M80.61,418.319c1.197,0.248,3.79,0.106,4.104-2.336          c0.414-3.191-4.697-7.142-6.425-9.094c-2.101-2.376-4.994-7.79-8.487-7.053c-4.987,1.05,0.59,8.397,2.612,10.847          c1.077,1.298,2.255,2.468,3.219,3.526C77.286,416.013,78.302,417.843,80.61,418.319z"/>
							</g>
						</g>
						<g>
							<g>
								<path style="fill-rule:evenodd;clip-rule:evenodd;fill:#FFFFFF;" d="M160.9,186.891c-1.816,4.282-0.643,12.044,0.963,19.597          c0.678,3.24,1.879,8.456,4.84,8.165c3.556-0.344,3.138-6.482,2.98-8.676c-0.5-6.955-2.513-15.243-4.877-19.346          C163.903,186,161.957,186.201,160.9,186.891z"/>
							</g>
							<g>
								<path style="fill-rule:evenodd;clip-rule:evenodd;fill:#FFFFFF;" d="M152.793,221.436          c-7.468-0.706-6.248,15.658-0.129,14.51c2.657-0.499,5.024-8.633,3.417-12.361          C155.502,222.248,154.094,221.565,152.793,221.436z"/>
							</g>
							<g>
								<path style="fill-rule:evenodd;clip-rule:evenodd;fill:#FFFFFF;" d="M161.714,239.197c-2.614-0.527-4.773,2.673-5.624,6.436          c-0.68,3.024-0.588,9.134,2.956,8.772c1.574-0.149,3.651-2.488,4.432-5.603          C164.402,245.158,165.072,239.878,161.714,239.197z"/>
							</g>
						</g>
					</g>
				</g>
			</g>
			<g>
				<g>
					<g>
						<g>
							<g>
								<path style="fill-rule:evenodd;clip-rule:evenodd;fill:#BAD6E9;" d="M286.444,143.917c-0.285-0.061-0.316,0.132-0.335,0.337          c-2.127,30.725-3.261,61.053-5.709,91.014c-2.432,29.756-5.3,59.177-7.724,88.996c-2.395,29.45-5.186,60.354-4.703,92.021          c0.478,31.302,0.486,63.275-0.672,95.045c38.089-0.514,78.157-1.524,115.195,0.671c-1.387-28.288-3.514-54.979-7.054-81.611          c-5.058-38.052-15.113-74.178-15.113-117.545c0-35.273,9.793-64.642,13.77-97.057c1.327-10.822,3.984-25.076-0.672-33.919          c-2.96-5.621-10.551-10.017-17.465-13.437C334.287,157.715,311.849,150.229,286.444,143.917z"/>
							</g>
							<g>
								<g>
									<path style="fill-rule:evenodd;clip-rule:evenodd;fill:#BAD6E9;" d="M286.444,139.214           c-1.601,0.349-1.225,2.673-1.343,3.695c-1.165,10.217-1.51,21.379-2.351,32.241c-2.589,33.438-5.158,67.139-8.06,100.416           c-0.209,2.389-1.468,5.649,0.672,7.724c3.77-0.02,5.457-3.991,7.052-6.717c5.014-8.564,8.85-18.022,13.434-27.873           c2.686-5.778,5.312-12.212,8.395-19.144c2.525-5.674,7.757-14.315,7.054-20.487c-0.362-3.174-2.994-6.272-4.701-9.066           c-1.778-2.913-3.933-5.434-4.703-8.731c3.952-1.627,12.181,1.729,14.777-2.688c1.338-2.278-0.7-7.552-1.679-11.083           c-2.001-7.208-3.809-15.213-6.045-22.168c-1.225-3.807-2.556-8.901-5.373-11.08           C299.777,141.318,291.438,140.108,286.444,139.214z"/>
								</g>
								<g style="opacity:0.41;">
									<path style="fill-rule:evenodd;clip-rule:evenodd;fill:#FFFFFF;" d="M286.444,139.214           c-1.601,0.349-1.225,2.673-1.343,3.695c-1.165,10.217-1.51,21.379-2.351,32.241c-2.589,33.438-5.158,67.139-8.06,100.416           c-0.209,2.389-1.468,5.649,0.672,7.724c3.77-0.02,5.457-3.991,7.052-6.717c5.014-8.564,8.85-18.022,13.434-27.873           c2.686-5.778,5.312-12.212,8.395-19.144c2.525-5.674,7.757-14.315,7.054-20.487c-0.362-3.174-2.994-6.272-4.701-9.066           c-1.778-2.913-3.933-5.434-4.703-8.731c3.952-1.627,12.181,1.729,14.777-2.688c1.338-2.278-0.7-7.552-1.679-11.083           c-2.001-7.208-3.809-15.213-6.045-22.168c-1.225-3.807-2.556-8.901-5.373-11.08           C299.777,141.318,291.438,140.108,286.444,139.214z"/>
								</g>
							</g>
						</g>
					</g>
					<g>
						<g>
							<g>
								<g>
									<path style="fill:#F7BE4A;" d="M333.869,295.641c-0.143,2.546-2.664,10.744-5.207,10.604           c-2.543-0.139-4.142-8.572-4.008-11.116c0.143-2.543,2.318-4.49,4.863-4.353           C332.063,290.919,334.008,293.1,333.869,295.641"/>
								</g>
								<g>
									<path style="fill:#E34E6A;" d="M328.453,310.245l-0.029,0.003c-0.812-0.048-1.432-0.739-1.391-1.554l0.195-3.51l2.97,0.169           l-0.191,3.505C329.962,309.673,329.268,310.293,328.453,310.245"/>
								</g>
								<g>
									<path style="fill:#E34E6A;" d="M333.915,223.022c-1.234-0.079-2.165-1.134-2.094-2.366l0.264-4.379           c0.071-1.227,1.125-2.166,2.356-2.09c1.23,0.068,2.165,1.126,2.094,2.354l-0.261,4.386           C336.199,222.154,335.142,223.093,333.915,223.022"/>
								</g>
								<g>
									<polygon style="fill:#1A4E72;" points="338.269,219.393 329.348,218.798 327.799,243.657 337.01,244.171          "/>
								</g>
								<g>
									<polygon style="fill:#1A4E72;" points="336.865,246.856 327.65,246.342 324.654,295.125 333.871,295.639          "/>
								</g>
								<g>
									
										<rect x="330.989" y="240.642" transform="matrix(0.0551 -0.9985 0.9985 0.0551 69.1238 563.5576)" style="fill:#F7BE4A;" width="2.683" height="9.228"/>
								</g>
								<g>
									
										<rect x="334.688" y="213.303" transform="matrix(0.0552 -0.9985 0.9985 0.0552 97.6582 542.235)" style="fill:#F7BE4A;" width="1.342" height="12.419"/>
								</g>
								<g>
									<polygon style="fill:#F7BE4A;" points="341.596,219.186 339.676,219.074 338.207,245.638 340.122,245.747          "/>
								</g>
							</g>
							<g>
								<g>
									<g>
										<path style="fill-rule:evenodd;clip-rule:evenodd;fill:#FFFFFF;" d="M334.869,223.405c1.962-1.205,2.245,4.439,0.54,4.624            c-2.002,0.213-1.45-3.465-0.716-4.495C334.739,223.47,334.802,223.445,334.869,223.405z"/>
									</g>
									<g>
										<path style="fill-rule:evenodd;clip-rule:evenodd;fill:#FFFFFF;" d="M334.23,230.187c1.708-0.747,2.212,3.991,0.291,3.827            C333.063,233.887,333.049,230.706,334.23,230.187z"/>
									</g>
								</g>
								<g>
									<g>
										<path style="fill-rule:evenodd;clip-rule:evenodd;fill:#FFFFFF;" d="M325.381,295.171            c-0.095-1.309,0.044-3.376,0.997-3.482c1.229-0.147,1.088,1.24,1.076,2.301c-0.011,1.065-0.065,2.379-1.054,2.422            C325.319,296.461,325.42,295.684,325.381,295.171z"/>
									</g>
									<g>
										<path style="fill-rule:evenodd;clip-rule:evenodd;fill:#FFFFFF;" d="M327.875,288.899            c-0.144-0.967,0.159-1.944,1.007-1.936c1.446,0.015,1.435,3.268,0.01,3.176            C328.353,290.109,327.994,289.699,327.875,288.899z"/>
									</g>
								</g>
							</g>
						</g>
						<g>
							<g>
								<path style="fill-rule:evenodd;clip-rule:evenodd;fill:#BAD6E9;" d="M346.187,257.222          c-0.052,7.033-0.01,14.436-0.374,21.386c-0.338,6.449-0.734,13.697-3.002,18.756c-1.887,4.209-5.972,7.433-9.754,10.88          c-3.372,3.07-7.709,7.767-12.004,8.251c-5.664,0.646-10.442-4.034-15.007-7.501c-5.569-4.226-10.573-7.507-13.506-13.882          c-3.494-7.595-4.427-20.202-4.501-28.885c-0.029-3.315,0.661-6.196,0.375-9.754          C307.108,255.924,328.5,255.549,346.187,257.222z"/>
							</g>
							<g style="opacity:0.25;">
								<path style="fill-rule:evenodd;clip-rule:evenodd;fill:#1A4E72;" d="M346.187,257.222          c-0.052,7.033-0.01,14.436-0.374,21.386c-0.338,6.449-0.734,13.697-3.002,18.756c-1.887,4.209-5.972,7.433-9.754,10.88          c-3.372,3.07-7.709,7.767-12.004,8.251c-5.664,0.646-10.442-4.034-15.007-7.501c-5.569-4.226-10.573-7.507-13.506-13.882          c-3.494-7.595-4.427-20.202-4.501-28.885c-0.029-3.315,0.661-6.196,0.375-9.754          C307.108,255.924,328.5,255.549,346.187,257.222z"/>
							</g>
						</g>
					</g>
				</g>
				<g>
					<g>
						<g>
							<g>
								<g>
									<path style="fill-rule:evenodd;clip-rule:evenodd;fill:#1A4E72;" d="M259.357,244.533           c8.542-0.737,19.738-4.242,26.858,1.974c1.188,1.038,2.302,2.814,3.06,4.758c-24.6,5.062-49.439,11.215-74.165,16.846           c-0.95-2.918-0.28-5.71,1.048-7.96c4.283-7.253,16.2-9.071,22.55-11.126c-0.53-4.057,0.038-8.015,3.842-10.88           C248.658,233.546,257.079,236.299,259.357,244.533z"/>
								</g>
								<g>
									<path style="fill-rule:evenodd;clip-rule:evenodd;fill:#FFFFFF;" d="M246.303,242.93           c6.591-5.014,13.252,8.684,4.886,11.235C244.839,256.104,241.752,246.39,246.303,242.93z"/>
								</g>
							</g>
							<g>
								<g>
									<g>
										<path style="fill-rule:evenodd;clip-rule:evenodd;fill:#F7BE4A;" d="M191.423,311.796            c-0.925-2.984-2.129-7.687-3.18-12.272c-2.158-9.461-5.785-19.584,0.654-24.236c3.18-2.298,8.427-3.885,13.601-5.449            c5.006-1.516,10.449-2.488,15.43-3.617c21.809-4.925,38.847-6.985,61.014-12.733c4.871-1.266,10.119-2.29,15.156-3.156            c7.027-1.21,14.079-3.014,17.64,1.202c1.612,1.906,2.191,6.008,3.297,9.736c1.064,3.594,1.659,7.441,2.35,10.559            c1.691,7.593,3.261,14.659,4.706,21.11c3.46,15.484,7.189,28.498,10.947,42.992c3.549,13.687,8.072,27.992,11.443,42.668            c2.87,12.508,9.034,29.019,6.671,39.859c-1.879,8.62-11.357,11.746-22.831,15.16            c-22.449,6.679-43.861,9.989-65.425,15.028c-5.155,1.207-11.089,2.751-16.51,3.898c-6.265,1.324-12.672,2.24-15.55,0.18            c-2.904-2.081-4.88-9.18-6.459-15.271c-1.648-6.363-3.002-12.531-4.268-17.957c-8.317-35.577-19.41-71.938-28.592-107.34            C191.485,312.034,191.46,311.91,191.423,311.796z"/>
									</g>
									<g>
										<g>
											<path style="fill-rule:evenodd;clip-rule:evenodd;fill:#FFFFFF;" d="M321.29,423.538             c3.218,3.956-9.654,6.919-8.503,2.027C313.383,423.021,318.885,422.913,321.29,423.538z"/>
										</g>
										<g>
											<path style="fill-rule:evenodd;clip-rule:evenodd;fill:#FFFFFF;" d="M329.625,426.628             c-1.063-0.177-3.152-1.109-2.642-3.217c0.658-2.759,6.113-4.411,8.147-5.474c2.475-1.293,6.559-4.849,9.198-3.138             c3.779,2.427-3.122,6.727-5.555,8.106c-1.293,0.739-2.635,1.329-3.757,1.898             C333.087,425.767,331.674,426.954,329.625,426.628z"/>
										</g>
									</g>
									<g>
										<g>
											<path style="fill-rule:evenodd;clip-rule:evenodd;fill:#FFFFFF;" d="M228.623,409.714             c1.66,1.994,2.284,6.312,2.642,10.592c0.158,1.83,0.362,4.799-1.261,5.12c-1.951,0.397-2.708-2.941-2.984-4.133             c-0.852-3.781-1.118-8.522-0.518-11.078C226.885,409.739,227.948,409.524,228.623,409.714z"/>
										</g>
										<g>
											<path style="fill-rule:evenodd;clip-rule:evenodd;fill:#FFFFFF;" d="M235.387,419.706             c3.858-1.582,5.85,7.322,2.403,7.696c-1.498,0.159-4.06-3.789-3.809-6.031             C234.08,420.566,234.716,419.979,235.387,419.706z"/>
										</g>
										<g>
											<path style="fill-rule:evenodd;clip-rule:evenodd;fill:#FFFFFF;" d="M236.805,443.322c1.302-0.706,2.97,0.65,4.024,2.516             c0.844,1.511,1.779,4.766-0.167,5.15c-0.862,0.167-2.336-0.742-3.256-2.278             C236.332,446.92,235.125,444.223,236.805,443.322z"/>
										</g>
									</g>
								</g>
								<g>
									<g>
										<path style="fill-rule:evenodd;clip-rule:evenodd;fill:#FFFFFF;" d="M201.139,278.925            c0.342-1.759,1.276-3.465,2.539-4.492c1.729-1.405,8.743-4.599,9.548-1.164            C213.973,276.452,203.838,281.739,201.139,278.925z"/>
									</g>
									<g>
										<path style="fill-rule:evenodd;clip-rule:evenodd;fill:#FFFFFF;" d="M197.129,284.741            c-0.173,2.769-1.424,6.917-3.629,7.026C188.281,292.042,193.887,280.456,197.129,284.741z"/>
									</g>
								</g>
							</g>
						</g>
						<g>
							<g>
								<g>
									<path style="fill-rule:evenodd;clip-rule:evenodd;fill:#FFCBD5;" d="M223.005,333.099           c-3.361,1.174-15.333,2.979-20.47,5.771c-1.997,1.078-4.034,2.941-3.486,4.88c1.158,4.095,10.473,1.799,13.822,1.463           c5.81-0.602,9.897-0.661,14.833-1.321c-3.668,1.873-15.292,3.553-21.776,6.643c-2.704,1.293-5.582,3.288-4.773,5.753           c1.033,3.133,8.895,2.131,11.551,1.873c12.772-1.217,27.04-2.478,37.365-1.392c11.855,1.24,21.948,3.923,32.585,8.792           c2.573,1.174,7.588,4.771,10.286,3.941c1.26-0.39,3.439-3.151,4.09-4.297c2.223-3.958,3.385-9.326,5.12-15.952           c0.665-2.523,1.439-5.011,1.83-8.311c0.328-2.675,1.387-7.163,0.995-8.42c-0.581-1.962-4.66-4.69-7.103-6.295           c-7.117-4.652-17.61-10.371-23.596-14.054c-5.198-3.179-10.642-6.53-15.593-9.673c-4.675-2.984-19.993-12.857-24.542-7.299           c-3.747,4.566,12.232,12.351,15.174,15.912c-7.831-1.483-20.841-1.842-33.9,0.952c-3.428,0.741-10.702,1.926-10.664,5.052           c0.046,4.293,5.878,3.559,8.596,3.753c3.787,0.263,6.56,0.83,9.846,0.478c-4.528,1.843-15.333,3.197-20.352,6.125           c-1.631,0.959-3.251,2.739-2.888,4.272c0.85,3.533,6.485,2.121,10.349,1.898c5.277-0.296,8.711-0.132,12.346-0.415           C222.756,333.185,222.883,333.144,223.005,333.099z"/>
								</g>
							</g>
							<g>
								<g>
									<g>
										<path style="fill-rule:evenodd;clip-rule:evenodd;fill:#BAD6E9;" d="M382.832,336.353            c-30.129-7.373-59.194-15.813-87.992-24.514c-6.48,22.287-13.779,43.757-21.829,64.482            c34.415,17.496,66.665,35.716,104.783,50.375c12.427,4.778,26.383,10.073,41.645,10.073            c15.254,0,26.243-6.021,32.576-14.775c6.931-9.582,8.321-23.034,7.052-38.956c-2.308-28.938-8.604-54.933-15.449-79.26            c-6.766-24.046-16.748-46.158-26.867-67.84c-7.066-15.142-15.895-31.872-27.203-43.997            c-5.611-6.013-11.52-11.943-20.486-14.439c-1.865-0.519-5.893-0.418-8.061,0.671c-9.504,4.771-8.568,25.658-7.389,40.302            c1.275,15.843,3.186,30.436,5.71,43.324C364.978,290.676,374.241,312.945,382.832,336.353z"/>
									</g>
									<g style="opacity:0.41;">
										<path style="fill-rule:evenodd;clip-rule:evenodd;fill:#FFFFFF;" d="M382.832,336.353            c-30.129-7.373-59.194-15.813-87.992-24.514c-6.48,22.287-13.779,43.757-21.829,64.482            c34.415,17.496,66.665,35.716,104.783,50.375c12.427,4.778,26.383,10.073,41.645,10.073            c15.254,0,26.243-6.021,32.576-14.775c6.931-9.582,8.321-23.034,7.052-38.956c-2.308-28.938-8.604-54.933-15.449-79.26            c-6.766-24.046-16.748-46.158-26.867-67.84c-7.066-15.142-15.895-31.872-27.203-43.997            c-5.611-6.013-11.52-11.943-20.486-14.439c-1.865-0.519-5.893-0.418-8.061,0.671c-9.504,4.771-8.568,25.658-7.389,40.302            c1.275,15.843,3.186,30.436,5.71,43.324C364.978,290.676,374.241,312.945,382.832,336.353z"/>
									</g>
								</g>
								<g style="opacity:0.25;">
									<path style="fill:#1A4E72;" d="M426.424,350.843c-4.267,0.653-8.056-1.65-11.754-3.024           c-10.665-3.958-20.772-8.185-31.859-11.516c-1.819-4.955-3.664-9.855-5.501-14.778           c15.116,7.089,32.057,14.915,45.083,23.945C424.088,346.644,426.737,348.274,426.424,350.843z"/>
								</g>
								<g>
									<g style="opacity:0.25;">
										<path style="fill:#1A4E72;" d="M294.84,311.839c4.543,1.372,9.096,2.733,13.656,4.092            c-0.824,21.434-2.321,44.063-5.236,63.019c-0.4,2.599-0.156,6.102-2.833,7.555c-3.295,0.909-6.144-0.605-8.814-1.577            c-1.92-0.696-3.793-1.313-5.635-1.946c-4.299-2.227-8.615-4.449-12.966-6.661            C281.061,355.596,288.36,334.126,294.84,311.839z"/>
									</g>
									<g>
										<path style="fill:#FFFFFF;" d="M283.38,370.31c0,2.619,2.125,4.745,4.747,4.745c2.619,0,4.745-2.126,4.745-4.745            c0-2.625-2.126-4.746-4.745-4.746C285.505,365.565,283.38,367.686,283.38,370.31z"/>
									</g>
								</g>
							</g>
						</g>
					</g>
					<g>
						<g>
							<path style="fill-rule:evenodd;clip-rule:evenodd;fill:#FFFFFF;" d="M444.65,384.698c5.845,4.143,8.781-14.175,2.039-12.1         C443.176,373.676,443.544,381.401,444.65,384.698z"/>
						</g>
						<g>
							<path style="fill-rule:evenodd;clip-rule:evenodd;fill:#FFFFFF;" d="M449.76,396.092c-0.342-1.473-1.844-4.312-4.753-3.402         c-3.801,1.187-5.598,8.98-6.897,11.933c-1.579,3.591-6.17,9.648-3.53,13.196c3.762,5.059,9.137-5.016,10.839-8.557         c0.905-1.88,1.607-3.817,2.295-5.447C448.889,401.025,450.42,398.937,449.76,396.092z"/>
						</g>
					</g>
				</g>
			</g>
		</g>
	</g>
	<g>
		<g>
			<path style="fill:#BAD6E9;" d="M263.867,49.719c27.276-2.513,51.466-6.762,67.317-11.392c-0.428-3.804-1.571-7.438-3.219-10.835     c-15.733,4.12-37.899,7.82-62.607,10.096c-20.927,1.931-40.247,2.523-55.531,1.949c-0.129,3.622,0.32,7.745-1.356,12.133     C223.732,52.238,243,51.643,263.867,49.719z"/>
		</g>
		<g>
			<g>
				<path style="fill:#BAD6E9;" d="M348.094,28.652c0,13.019-10.553,23.57-23.57,23.57c-13.019,0-23.57-10.551-23.57-23.57      c0-13.019,10.551-23.573,23.57-23.573C337.542,5.079,348.094,15.633,348.094,28.652z"/>
			</g>
			<g style="opacity:0.41;">
				<path style="fill:#FFFFFF;" d="M348.094,28.652c0,13.019-10.553,23.57-23.57,23.57c-13.019,0-23.57-10.551-23.57-23.57      c0-13.019,10.551-23.573,23.57-23.573C337.542,5.079,348.094,15.633,348.094,28.652z"/>
			</g>
			<g>
				<path style="fill:#1A4E72;" d="M332.701,28.652c0,4.515-3.661,8.177-8.177,8.177c-4.516,0-8.177-3.662-8.177-8.177      c0-4.517,3.661-8.18,8.177-8.18C329.04,20.472,332.701,24.135,332.701,28.652z"/>
			</g>
		</g>
	</g>
</g>
<g>
	<path style="fill-rule:evenodd;clip-rule:evenodd;fill:#FFFFFF;" d="M207.331,283.943c-1.073-1.225-3.159-0.592-4.807,0.791   c-1.323,1.113-3.297,3.913-1.487,5.087c0.8,0.527,2.563,0.252,3.964-0.864C206.645,287.656,208.708,285.519,207.331,283.943z"/>
</g>















</svg>
