<?xml version="1.0" encoding="utf-8"?>
<!-- Generator: Adobe Illustrator 24.2.0, SVG Export Plug-In . SVG Version: 6.00 Build 0)  -->
<svg version="1.1" id="图层_1" xmlns="http://www.w3.org/2000/svg" xmlns:xlink="http://www.w3.org/1999/xlink" x="0px" y="0px"
	 viewBox="0 0 700 700" style="enable-background:new 0 0 700 700;" xml:space="preserve">
<style type="text/css">
	.st0{fill:#F2F5FA;}
	.st1{filter:url(#Adobe_OpacityMaskFilter);}
	.st2{filter:url(#Adobe_OpacityMaskFilter_1_);}
	.st3{mask:url(#SVGID_1_);fill:url(#SVGID_2_);}
	.st4{opacity:0.26;fill:url(#SVGID_3_);}
	.st5{opacity:0.39;fill:#FCAA23;}
	.st6{fill:#FFFFFF;}
	.st7{opacity:0.72;fill:#FCAA23;}
	.st8{opacity:0.14;}
	.st9{opacity:0.39;fill:#FFFFFF;}
	.st10{fill:#FCAA23;}
	.st11{fill:none;stroke:#FF5500;stroke-width:1.61;stroke-linecap:round;stroke-linejoin:round;stroke-miterlimit:10;}
	.st12{opacity:0.61;}
	.st13{fill:#FF7F00;}
	.st14{filter:url(#Adobe_OpacityMaskFilter_2_);}
	.st15{filter:url(#Adobe_OpacityMaskFilter_3_);}
	.st16{mask:url(#SVGID_4_);fill:url(#SVGID_5_);}
	.st17{opacity:0.42;fill:url(#SVGID_6_);}
	.st18{filter:url(#Adobe_OpacityMaskFilter_4_);}
	.st19{filter:url(#Adobe_OpacityMaskFilter_5_);}
	.st20{mask:url(#SVGID_7_);fill:url(#SVGID_8_);}
	.st21{opacity:0.42;fill:url(#SVGID_9_);}
	.st22{filter:url(#Adobe_OpacityMaskFilter_6_);}
	.st23{filter:url(#Adobe_OpacityMaskFilter_7_);}
	.st24{mask:url(#SVGID_10_);fill:url(#SVGID_11_);}
	.st25{opacity:0.42;fill:url(#SVGID_12_);}
	.st26{fill:#C3D1FF;}
	.st27{fill:#9FC3FD;}
	.st28{fill:none;stroke:#000000;stroke-width:0.23;stroke-miterlimit:10;}
	.st29{fill:#4055EC;}
	.st30{fill:none;stroke:#4055EC;stroke-width:1.38;stroke-miterlimit:10;}
	.st31{fill:none;stroke:#C3D1FF;stroke-width:1.61;stroke-linecap:round;stroke-miterlimit:10;}
	.st32{fill:#E2EAF5;}
	.st33{fill:#85A9FF;}
	.st34{opacity:0.15;fill:#4052F2;}
	.st35{fill:#FDA118;}
	.st36{opacity:0.89;fill:#FFFFFF;}
	.st37{opacity:0.95;fill:#FFFFFF;}
	.st38{fill:#D3E0F1;}
	.st39{opacity:0.11;fill:#4052F2;}
	.st40{fill:#4052F2;}
	.st41{fill:#FFCAE1;}
	.st42{fill:#FDB2D0;}
	.st43{fill:#342DEC;}
	.st44{fill:#0600A0;}
	.st45{opacity:0.96;fill:#C3D1FF;}
	.st46{opacity:0.49;fill:#0600A0;}
	.st47{fill:none;stroke:#85A9FF;stroke-width:0.69;stroke-linecap:round;stroke-linejoin:round;stroke-miterlimit:10;}
	.st48{fill:none;stroke:#F2F5FA;stroke-width:0.69;stroke-linecap:round;stroke-linejoin:round;stroke-miterlimit:10;}
	.st49{opacity:0.22;}
	.st50{opacity:0.95;}
	.st51{opacity:0.11;fill:#FFFFFF;}
	.st52{opacity:8.000000e-02;fill:#4052F2;}
	.st53{filter:url(#Adobe_OpacityMaskFilter_8_);}
	.st54{filter:url(#Adobe_OpacityMaskFilter_9_);}
	.st55{mask:url(#SVGID_13_);fill:url(#SVGID_14_);}
	.st56{fill:url(#SVGID_15_);}
	.st57{filter:url(#Adobe_OpacityMaskFilter_10_);}
	.st58{filter:url(#Adobe_OpacityMaskFilter_11_);}
	.st59{mask:url(#SVGID_16_);fill:url(#SVGID_17_);}
	.st60{fill:url(#SVGID_18_);}
</style>
<g>
	<path class="st0" d="M182.8,534.6c-29.4-6.4-59.4-17.9-83.8-35.5c-26.6-19.1-41.3-50.6-34.8-83.3c6.4-32.6,34-59.9,66.6-65.9
		c42.2-7.8,77.2-12,100.8-52.2c10.5-17.8,19.5-36.5,25.4-56.4c10.7-36,30.5-82,73.9-86c24.7-2.3,48.6,8.8,68.9,21.7
		c26.3,16.6,49.2,35.6,78.9,46.2c22.6,8.1,46.3,13.1,70.2,14.8c20.3,1.4,42.6-0.6,61.6,8.2c18.8,8.7,35.7,26.8,41.6,46.8
		c9.3,31.3-15.7,54.8-28.5,80.4c-12.1,24.2-18.1,51.1-20.6,77.8c-2,21.2-4.4,79.9-33.3,83.4"/>
	<path class="st0" d="M379.5,253.2c0,0,2.1,25.6,14.1,33"/>
	<line class="st0" x1="393.6" y1="286.2" x2="400.2" y2="297.8"/>
	<defs>
		<filter id="Adobe_OpacityMaskFilter" filterUnits="userSpaceOnUse" x="5" y="371.6" width="690" height="159.5">
			<feFlood  style="flood-color:white;flood-opacity:1" result="back"/>
			<feBlend  in="SourceGraphic" in2="back" mode="normal"/>
		</filter>
	</defs>
	<mask maskUnits="userSpaceOnUse" x="5" y="371.6" width="690" height="159.5" id="SVGID_1_">
		<g class="st1">
			<defs>
				<filter id="Adobe_OpacityMaskFilter_1_" filterUnits="userSpaceOnUse" x="5" y="371.6" width="690" height="159.5">
					<feFlood  style="flood-color:white;flood-opacity:1" result="back"/>
					<feBlend  in="SourceGraphic" in2="back" mode="normal"/>
				</filter>
			</defs>
			<mask maskUnits="userSpaceOnUse" x="5" y="371.6" width="690" height="159.5" id="SVGID_1_">
			</mask>
			<linearGradient id="SVGID_2_" gradientUnits="userSpaceOnUse" x1="350" y1="327.2218" x2="350" y2="611.8242">
				<stop  offset="0" style="stop-color:#000000"/>
				<stop  offset="1" style="stop-color:#FFFFFF"/>
			</linearGradient>
			<polygon class="st3" points="46.1,531.1 5,371.6 695,371.6 646.5,529.7 			"/>
		</g>
	</mask>
	<linearGradient id="SVGID_3_" gradientUnits="userSpaceOnUse" x1="350" y1="327.2218" x2="350" y2="611.8242">
		<stop  offset="0" style="stop-color:#FFFFFF"/>
		<stop  offset="1" style="stop-color:#0000FF"/>
	</linearGradient>
	<polygon class="st4" points="46.1,531.1 5,371.6 695,371.6 646.5,529.7 	"/>
	<g>
		<path class="st5" d="M436.5,499.1l-32.4-19.3c-8.2-4.9-10.9-15.5-6-23.6l108.6-182.2c4.9-8.2,15.5-10.9,23.6-6l32.4,19.3
			c8.2,4.9,10.9,15.5,6,23.6L460.2,493.2C455.3,501.3,444.7,504,436.5,499.1z"/>
		<path class="st6" d="M428.7,437.5c-5.5,9.2-2.5,21.1,6.7,26.6s21.1,2.5,26.6-6.7c3.9-6.6,3.5-14.6-0.5-20.6l27-45.3
			c0.1-0.2,0.2-0.3,0.3-0.5l49.9-83.8c2.4-4,1.1-9.1-2.9-11.5c-4-2.4-9.1-1.1-11.5,2.9L491.9,353c-0.1,0.2-0.2,0.3-0.3,0.5
			l-44.4,74.6C440,427.4,432.7,430.8,428.7,437.5z"/>
		<path class="st0" d="M457,436.9l78.4-131.5c1.3-2.2,0.6-5-1.6-6.3c-2.2-1.3-5-0.6-6.3,1.6l-78.4,131.5c-6.5-1.6-13.6,1.1-17.3,7.2
			c-4.4,7.5-2,17.1,5.5,21.5c7.5,4.4,17.1,2,21.5-5.5C462.5,449.4,461.5,441.9,457,436.9z"/>
		<path class="st7" d="M458.8,455.5c-4.4,7.5-14.1,9.9-21.5,5.5c-7.5-4.4-9.9-14.1-5.5-21.5c3.6-6.1,10.7-8.8,17.3-7.2l28.8-48.4
			l7.9,4.7L457,436.9C461.5,441.9,462.5,449.4,458.8,455.5z"/>
	</g>
	<g class="st8">
		<path class="st9" d="M436.5,499.1l-32.4-19.3c-8.2-4.9-10.9-15.5-6-23.6l108.6-182.2c4.9-8.2,15.5-10.9,23.6-6l32.4,19.3
			c8.2,4.9,10.9,15.5,6,23.6L460.2,493.2C455.3,501.3,444.7,504,436.5,499.1z"/>
		<path class="st6" d="M428.7,437.5c-5.5,9.2-2.5,21.1,6.7,26.6s21.1,2.5,26.6-6.7c3.9-6.6,3.5-14.6-0.5-20.6l27-45.3
			c0.1-0.2,0.2-0.3,0.3-0.5l49.9-83.8c2.4-4,1.1-9.1-2.9-11.5c-4-2.4-9.1-1.1-11.5,2.9L491.9,353c-0.1,0.2-0.2,0.3-0.3,0.5
			l-44.4,74.6C440,427.4,432.7,430.8,428.7,437.5z"/>
		<path class="st6" d="M457,436.9l78.4-131.5c1.3-2.2,0.6-5-1.6-6.3c-2.2-1.3-5-0.6-6.3,1.6l-78.4,131.5c-6.5-1.6-13.6,1.1-17.3,7.2
			c-4.4,7.5-2,17.1,5.5,21.5c7.5,4.4,17.1,2,21.5-5.5C462.5,449.4,461.5,441.9,457,436.9z"/>
		<path class="st6" d="M458.8,455.5c-4.4,7.5-14.1,9.9-21.5,5.5c-7.5-4.4-9.9-14.1-5.5-21.5c3.6-6.1,10.7-8.8,17.3-7.2l28.8-48.4
			l7.9,4.7L457,436.9C461.5,441.9,462.5,449.4,458.8,455.5z"/>
	</g>
	<g>
		<g>
			<g>
				<path class="st10" d="M88.1,488.2l492.5,2.1c3.4,0,6.8,0.3,7.6,0.7l82.2,43.9l-652.9,1.9"/>
			</g>
		</g>
		<g>
			<polygon class="st11" points="646.4,529.7 46,530.9 100.2,491.4 579.1,493.1 			"/>
		</g>
	</g>
	<g>
		<g>
			<path class="st10" d="M17.5,536.8l652.9-1.9L588.2,491c-0.7-0.4-4.1-0.7-7.6-0.7l-492.5-2.1L17.5,536.8z"/>
		</g>
	</g>
	<g>
		<polygon class="st11" points="646.4,529.7 46,530.9 100.2,491.4 579.1,493.1 		"/>
	</g>
	<g class="st12">
		<g>
			<polygon class="st6" points="646.4,529.7 431.1,530.1 404.5,530.2 377.5,530.2 324,530.3 301,530.4 166.4,530.7 46,530.9 
				100.2,491.4 110.9,491.4 246.6,491.9 269.7,492 323.7,492.2 351,492.3 377.7,492.4 579.1,493.1 			"/>
		</g>
	</g>
	<path class="st13" d="M35.3,553.9l617.6-1.4c9.7,0,17.6-7.9,17.6-17.6v0l-652.8,1.5l0,0C17.6,546,25.5,553.9,35.3,553.9z"/>
	<defs>
		<filter id="Adobe_OpacityMaskFilter_2_" filterUnits="userSpaceOnUse" x="110.9" y="491.4" width="190.2" height="39.3">
			<feFlood  style="flood-color:white;flood-opacity:1" result="back"/>
			<feBlend  in="SourceGraphic" in2="back" mode="normal"/>
		</filter>
	</defs>
	<mask maskUnits="userSpaceOnUse" x="110.9" y="491.4" width="190.2" height="39.3" id="SVGID_4_">
		<g class="st14">
			<defs>
				<filter id="Adobe_OpacityMaskFilter_3_" filterUnits="userSpaceOnUse" x="110.9" y="491.4" width="190.2" height="39.3">
					<feFlood  style="flood-color:white;flood-opacity:1" result="back"/>
					<feBlend  in="SourceGraphic" in2="back" mode="normal"/>
				</filter>
			</defs>
			<mask maskUnits="userSpaceOnUse" x="110.9" y="491.4" width="190.2" height="39.3" id="SVGID_4_">
			</mask>
			<linearGradient id="SVGID_5_" gradientUnits="userSpaceOnUse" x1="389.2919" y1="655.7414" x2="178.497" y2="489.2136">
				<stop  offset="0" style="stop-color:#000000"/>
				<stop  offset="1" style="stop-color:#FFFFFF"/>
			</linearGradient>
			<polygon class="st16" points="301,530.4 166.4,530.7 110.9,491.4 246.6,491.9 			"/>
		</g>
	</mask>
	<linearGradient id="SVGID_6_" gradientUnits="userSpaceOnUse" x1="389.2919" y1="655.7414" x2="178.497" y2="489.2136">
		<stop  offset="0" style="stop-color:#FFFFFF"/>
		<stop  offset="1" style="stop-color:#FFFFFF"/>
	</linearGradient>
	<polygon class="st17" points="301,530.4 166.4,530.7 110.9,491.4 246.6,491.9 	"/>
	<defs>
		<filter id="Adobe_OpacityMaskFilter_4_" filterUnits="userSpaceOnUse" x="269.7" y="492" width="107.8" height="38.4">
			<feFlood  style="flood-color:white;flood-opacity:1" result="back"/>
			<feBlend  in="SourceGraphic" in2="back" mode="normal"/>
		</filter>
	</defs>
	<mask maskUnits="userSpaceOnUse" x="269.7" y="492" width="107.8" height="38.4" id="SVGID_7_">
		<g class="st18">
			<defs>
				<filter id="Adobe_OpacityMaskFilter_5_" filterUnits="userSpaceOnUse" x="269.7" y="492" width="107.8" height="38.4">
					<feFlood  style="flood-color:white;flood-opacity:1" result="back"/>
					<feBlend  in="SourceGraphic" in2="back" mode="normal"/>
				</filter>
			</defs>
			<mask maskUnits="userSpaceOnUse" x="269.7" y="492" width="107.8" height="38.4" id="SVGID_7_">
			</mask>
			<linearGradient id="SVGID_8_" gradientUnits="userSpaceOnUse" x1="434.412" y1="598.6272" x2="223.6172" y2="432.0995">
				<stop  offset="0" style="stop-color:#000000"/>
				<stop  offset="1" style="stop-color:#FFFFFF"/>
			</linearGradient>
			<polygon class="st20" points="377.5,530.2 324,530.3 269.7,492 323.7,492.2 			"/>
		</g>
	</mask>
	<linearGradient id="SVGID_9_" gradientUnits="userSpaceOnUse" x1="434.412" y1="598.6272" x2="223.6172" y2="432.0995">
		<stop  offset="0" style="stop-color:#FFFFFF"/>
		<stop  offset="1" style="stop-color:#FFFFFF"/>
	</linearGradient>
	<polygon class="st21" points="377.5,530.2 324,530.3 269.7,492 323.7,492.2 	"/>
	<defs>
		<filter id="Adobe_OpacityMaskFilter_6_" filterUnits="userSpaceOnUse" x="351" y="492.3" width="80.1" height="37.9">
			<feFlood  style="flood-color:white;flood-opacity:1" result="back"/>
			<feBlend  in="SourceGraphic" in2="back" mode="normal"/>
		</filter>
	</defs>
	<mask maskUnits="userSpaceOnUse" x="351" y="492.3" width="80.1" height="37.9" id="SVGID_10_">
		<g class="st22">
			<defs>
				<filter id="Adobe_OpacityMaskFilter_7_" filterUnits="userSpaceOnUse" x="351" y="492.3" width="80.1" height="37.9">
					<feFlood  style="flood-color:white;flood-opacity:1" result="back"/>
					<feBlend  in="SourceGraphic" in2="back" mode="normal"/>
				</filter>
			</defs>
			<mask maskUnits="userSpaceOnUse" x="351" y="492.3" width="80.1" height="37.9" id="SVGID_10_">
			</mask>
			<linearGradient id="SVGID_11_" gradientUnits="userSpaceOnUse" x1="460.2635" y1="565.9039" x2="249.4695" y2="399.3767">
				<stop  offset="0" style="stop-color:#000000"/>
				<stop  offset="1" style="stop-color:#FFFFFF"/>
			</linearGradient>
			<polygon class="st24" points="431.1,530.1 404.5,530.2 351,492.3 377.7,492.4 			"/>
		</g>
	</mask>
	<linearGradient id="SVGID_12_" gradientUnits="userSpaceOnUse" x1="460.2635" y1="565.9039" x2="249.4695" y2="399.3767">
		<stop  offset="0" style="stop-color:#FFFFFF"/>
		<stop  offset="1" style="stop-color:#FFFFFF"/>
	</linearGradient>
	<polygon class="st25" points="431.1,530.1 404.5,530.2 351,492.3 377.7,492.4 	"/>
	<g>
		<path class="st26" d="M458.9,433.7c2.3-5.7,5-11.5,10-15.1c5-3.6,12.8-3.9,16.5,1c1.7,2.3,2.3,5.3,4.7,7.1c1,0.8,2.4,1.2,3.6,0.8
			c1.8-0.5,2.2-2.1,2.5-3.6c1.5-7.4,3.1-14.8,4.6-22.2c1.6-7.5,3.5-15.6,9.3-20.5c1.5-1.2,3.2-2.2,5.1-2.4c1.6-0.2,3.1,0.3,4.5,1
			c6.8,3.5,15,1.3,19.1-5.1c3.4-5.3,7.1-10.4,11.1-15.3c0.7-0.8,1.4-1.7,2.4-2c1.2-0.4,2.6,0,3.6,0.7c5,3.2,4.1,10.8,1.6,16.2
			c-2.5,5.4-6,11.1-4.4,16.8c1,3.5,3.8,6.1,5.9,9c3.9,5.2,5.9,12.3,3.2,18.1c-6,12.7-27.9,9.4-34.6,21.8c-4.9,9,7.1,24,3.9,33.7
			c-2.9,8.9-18.7,15.8-27.4,19c-9.6,3.6-56,18.9-61.9,7.4c-3.8-7.3,3.4-25.5,5.4-32.9C450.7,455.7,454.4,444.6,458.9,433.7z"/>
	</g>
	<g>
		<g>
			<g>
				<path class="st6" d="M561.5,475c-14,6.1-54.7,17.1-87,29.3c0,0,0,0,0,0c-1.4,0.5-2.8,1.1-4.2,1.6c-0.8-0.5-1.4-1-2.1-1.6h-15.7
					c-0.4,0.3-0.9,0.6-1.3,1c0.3-0.3,0.6-0.6,0.9-1h-6.8c1.6-1.7,3.3-3.4,5.1-5.2c1-1,2.1-2,3.1-3c1.4-1.3,2.9-2.7,4.4-4
					c2.4-2.1,4.9-4.3,7.4-6.4c0.4-0.3,0.7-0.6,1.1-0.9c0.1-0.1,0.2-0.1,0.2-0.2c0,0,0.1-0.1,0.1-0.1c0.7-0.5,1.3-1.1,2-1.6
					c1.1-0.9,2.1-1.7,3.2-2.6c0.6-0.5,1.3-1,1.9-1.5c2.9-2.3,5.9-4.5,9-6.7c1.1-0.8,2.3-1.6,3.4-2.4c2.1-1.5,4.2-2.9,6.4-4.4
					c1.8-1.2,3.6-2.4,5.4-3.6c2.2-1.4,4.4-2.8,6.7-4.2c1.9-1.1,3.8-2.2,5.6-3.3c4.2-2.4,8.3-4.6,12.4-6.7
					c19.7-9.8,37.9-15.1,49.6-11.7C596.8,443.2,582.8,465.7,561.5,475z"/>
			</g>
		</g>
		<path class="st26" d="M428.9,526.3c0.1-0.2,0.1-0.4,0.2-0.6C429.1,525.9,429,526.1,428.9,526.3z"/>
		<path class="st26" d="M575,450.7c-0.2,0.1-39.2,10-79.3,29.9c-1.7,0.9-3.4,1.7-5.2,2.6c-3.1,1.6-6.3,3.3-9.4,5c-1.7,1-3.5,2-5.2,3
			c-2.3,1.4-4.6,2.7-6.9,4.2c-1.5,0.9-3,1.9-4.4,2.8c-2.4,1.6-4.8,3.2-7.1,4.9c-0.6,0.4-1.1,0.8-1.7,1.2h-3.4c2.3-1.7,4.6-3.4,7-5
			c1.6-1.1,3.1-2.1,4.7-3.2c1.2-0.8,2.4-1.5,3.5-2.3c2.4-1.5,4.7-2.9,7.1-4.3c1.7-1,3.4-2,5.1-2.9c3-1.7,6.1-3.3,9.1-4.9
			c1.8-1,3.7-1.9,5.5-2.8c2.7-1.4,5.4-2.7,8.1-3.9c1-0.5,2.1-1,3.1-1.4c36.2-16.5,68.5-24.8,68.7-24.8c0.5-0.1,1.1,0.2,1.2,0.7
			C575.9,450,575.6,450.5,575,450.7z"/>
	</g>
	<g>
		<g>
			<path class="st27" d="M273.8,439.8c-5.1-6-10.2-12.5-11.3-20.3c-1.1-7.8,3.2-16.9,10.9-18.3c3.6-0.6,7.4,0.5,10.9-1.1
				c1.5-0.7,2.8-2,3.1-3.7c0.5-2.4-1.1-3.8-2.6-5c-7.5-6.1-15-12.3-22.5-18.4c-7.6-6.2-15.7-13.2-17.8-22.8
				c-0.5-2.4-0.6-4.9,0.3-7.2c0.8-2,2.1-3.4,3.8-4.6c7.9-5.7,10.3-16.3,5.5-24.8c-4-7-7.6-14.3-10.8-21.7c-0.5-1.3-1.1-2.6-0.9-3.9
				c0.2-1.6,1.5-3,2.9-3.8c6.6-3.8,14.7,1.8,19.3,7.8c4.7,6,9.1,13.4,16.5,14.9c4.5,0.9,9.2-0.7,13.7-1.4c8.2-1.3,17.5,0.5,22.5,7.1
				c10.9,14.3-5.8,37.4,4.4,52.3c7.4,10.9,31.5,6.1,40.7,15.5c8.4,8.5,6.9,30.6,5.5,42.5c-1.6,13.1-11.7,74.9-28.3,74.9
				c-10.5,0-27-19-34.3-25.7C294.1,462.1,283.6,451.3,273.8,439.8z"/>
		</g>
	</g>
	<path class="st28" d="M291.6,462c1.7-13.5-2.5-27-7.1-39.8"/>
	<g>
		<g>
			<path class="st26" d="M192.1,406c-4.6-26,22.9-23.3,41.3-7.8c18.4,15.5,75.5,82.9,103.1,94.3c10.7,4.5,8.8,6.1,0.6,5.4
				C295.8,494.2,198.4,441.8,192.1,406z"/>
			<g>
				<g>
					<path class="st6" d="M343.7,496.5c0.7,0.9-0.2,1.4-2.5,1.5c-68.6-18.7-138.1-99.6-138.3-99.8c-0.4-0.4-0.3-1.1,0.1-1.5
						c0.4-0.4,1.1-0.3,1.5,0.1C204.7,397.1,275.2,479.1,343.7,496.5z"/>
				</g>
			</g>
		</g>
		<g>
			<path class="st6" d="M252.3,392.9c2.9-21.9,24.1-12.8,34.9,4.2c10.8,17,39.2,85.1,58.3,101.2c7.4,6.2,5.5,7.1-0.9,4.4
				C312.7,489.4,248.4,423,252.3,392.9z"/>
			<path class="st26" d="M350.2,503.3c0.3,0.9-0.6,1.1-2.3,0.6c-49.9-32.2-84.8-114.2-84.9-114.4c-0.2-0.5,0-1,0.5-1.2
				c0.5-0.2,1,0,1.2,0.5C264.7,389,300.1,472.1,350.2,503.3z"/>
		</g>
	</g>
	<g>
		<path class="st29" d="M276.5,384.4c0,0,8.2,31.8,25.8,56.7"/>
		<path class="st29" d="M258.8,382.6c0,0,13.2,29.4,27.1,28.6C285.9,411.3,281.2,385.2,258.8,382.6z"/>
		<path class="st29" d="M263.1,356.2c0,0-0.7,25.6,15.8,36.1c0,0,5.6-12.9-6.5-26.4S263.1,356.2,263.1,356.2z"/>
		<path class="st29" d="M283.7,403.9c0,0-2.9-15.6,8.5-19.1c0,0,3.4,17.5-7.3,20.3"/>
	</g>
	<g>
		<path class="st30" d="M520.2,436c-1.3,0.6-2.7,1.1-4,1.8c-2.9,1.4-5.7,2.9-8.5,4.6c-0.5,0.3-0.9,0.6-1.4,0.9
			c-1.6,1.1-3.2,2.2-4.8,3.3c-0.4,0.3-0.9,0.7-1.3,1c-1.6,1.2-3.2,2.5-4.7,3.8c-0.8,0.7-1.6,1.4-2.4,2.1c-0.8,0.7-1.5,1.4-2.3,2.1
			c-0.4,0.3-0.7,0.7-1.1,1.1c-8,7.8-14.9,16.8-21,26.4c-2.4,3.8-4.6,7.6-6.8,11.6c0,0,0,0,0,0c-0.4,0.7-0.8,1.4-1.1,2.1c0,0,0,0,0,0
			c-0.1,0.3-0.3,0.5-0.4,0.8c-0.3,0.6-0.6,1.2-1,1.8c-0.5,1-1,2-1.5,3c-0.1,0.3-0.3,0.5-0.4,0.8c-0.2,0.4-0.4,0.8-0.6,1.2"/>
		<path class="st29" d="M533.2,424.7c1.5-0.2,3.2-0.1,4.2,1c1,1.1,0.7,2.9-0.1,4.1c-0.9,1.2-2.2,2-3.5,2.7
			c-2.7,1.5-19.9,11.9-17.3,2.8C518.1,429.4,527.9,425.3,533.2,424.7z"/>
		<path class="st29" d="M482.9,438c-0.3-1.4-0.4-3.1,0.4-4.2c0.8-1.1,2.3-1.1,3.3-0.4c1,0.7,1.8,1.9,2.4,3.1
			c1.4,2.5,11.2,18.2,3.7,16.8C488,452.4,483.9,443.2,482.9,438z"/>
		<path class="st29" d="M446.9,489.8c-0.7-1-1.3-2.2-1.1-3.3c0.2-1.1,1.3-1.6,2.3-1.4c1,0.2,1.9,0.9,2.8,1.5
			c1.9,1.4,14.2,9.9,8.2,11.3C455.4,498.9,449.3,493.4,446.9,489.8z"/>
		<path class="st29" d="M496.5,422.9c0.3-2.5,1.4-5.4,3.9-5.7c1.5-0.2,3,0.8,3.9,2c0.9,1.3,1.3,2.8,1.6,4.3
			c1.3,5.5,2.7,11.2,2.3,16.8c-0.5,7.1-7.3-1.6-8.6-3.8C497.2,432.5,496,427.7,496.5,422.9z"/>
		<path class="st29" d="M460,459.6c-0.7-2.1-0.8-4.9,1.1-6c1.2-0.7,2.7-0.5,3.9,0.2c1.2,0.7,2.1,1.8,2.9,2.9c3.1,4,6.2,8.1,8,12.8
			c2.2,6-6.5,1.3-8.4,0C464.1,467.2,461.4,463.7,460,459.6z"/>
		<path class="st29" d="M500.1,464c1.6,1.6,3.1,3.3,4.3,5.2c1.1,1.9,1.8,3.9,1.4,5.7c-0.1,0.2-0.1,0.5-0.3,0.6
			c-0.4,0.3-1.1,0.1-1.6-0.1c-3.9-1.4-7.3-4.3-9.6-7.6c-2.3-3.3-3.6-6.9-4.3-10.5C488.6,451,498.8,462.6,500.1,464z"/>
		<path class="st29" d="M510.7,454.6c1.6,1.6,3.2,3.2,4.4,5c1.2,1.8,1.9,3.8,1.6,5.4c0,0.2-0.1,0.4-0.3,0.6c-0.4,0.3-1,0.1-1.6-0.1
			c-3.9-1.4-7.3-4.3-9.7-7.5c-2.4-3.2-3.8-6.7-4.6-10C498.9,442,509.4,453.3,510.7,454.6z"/>
		<path class="st29" d="M474.5,504.4c-1.4,0.5-2.8,1.1-4.2,1.6c-0.8-0.5-1.4-1-2.1-1.6c-0.8-0.8-1.5-1.7-2.1-2.8
			c-0.6-1.1-1-2.2-1.4-3.4c-0.2-0.7-0.4-1.4-0.5-2.1c-0.2-1-0.3-2-0.4-3c0-0.1,0-0.2,0-0.3c0-1.4,0.5-1.6,1.3-1.2
			c0.7,0.4,1.7,1.2,2.6,2.2c0.5,0.5,0.9,1,1.4,1.5c0.9,1.1,1.6,2,1.9,2.3c1,1.2,2.1,2.5,2.7,3.9
			C474.2,502.5,474.4,503.4,474.5,504.4C474.5,504.4,474.5,504.4,474.5,504.4z"/>
		<path class="st29" d="M480.1,486.8c1.2,1.6,2.4,3.3,3.2,5c0.8,1.7,1.2,3.6,0.7,5c-0.1,0.2-0.2,0.4-0.3,0.5
			c-0.4,0.2-0.9-0.1-1.4-0.3c-3.2-1.8-5.9-4.8-7.6-8c-1.7-3.1-2.5-6.4-2.8-9.5C471.3,474,479.1,485.4,480.1,486.8z"/>
		<path class="st29" d="M485.8,460.6c-0.3-4-2.4-7.9-5.5-10.4c-1.1-0.9-2.3-1.6-3.7-1.7c-1.4-0.1-2.9,0.6-3.4,1.9
			c-0.7,1.8,0.7,3.6,2.1,4.9c2.1,1.9,4.4,3.6,6.8,5c0.7,0.4,1.5,0.8,2.4,0.7c0.8-0.1,1.7-0.8,1.6-1.6L485.8,460.6z"/>
		<path class="st29" d="M466.5,485.4c-0.3-4-2.4-7.9-5.5-10.4c-1.1-0.9-2.3-1.6-3.7-1.7c-1.4-0.1-2.9,0.6-3.4,1.9
			c-0.7,1.8,0.7,3.6,2.1,4.9c2.1,1.9,4.4,3.6,6.8,5c0.7,0.4,1.5,0.8,2.4,0.7c0.8-0.1,1.7-0.8,1.6-1.6L466.5,485.4z"/>
		<path class="st29" d="M495.9,481c0.6,1,1.1,2.2,0.5,3.2c-0.6,1-2.1,1-3.3,0.6c-3-1.1-4.8-3.9-6.5-6.6c-1.8-2.9-3.7-5.8-5.4-8.7
			c-2.3-3.8,0.2-3.3,2.8-1.4C488.9,471.5,492.9,475.9,495.9,481z"/>
	</g>
	<line class="st31" x1="548.8" y1="456.9" x2="558.3" y2="441.1"/>
	<line class="st31" x1="533" y1="463.3" x2="558.3" y2="466.4"/>
	<line class="st31" x1="510.9" y1="472.7" x2="536.2" y2="475.9"/>
	<line class="st31" x1="523.6" y1="466.4" x2="529.9" y2="450.6"/>
	<g>
		<path class="st32" d="M100.1,323.7c0,0.5-0.1,1-0.1,1.5c-0.8,29.7,32.8,82.9,67.3,62.9c9.6-5.5,16.3-14.8,22.5-24
			c7.5-11,14.7-22.6,17.2-35.7c8.9-46.7-46.6-53.6-78.3-39.3C115.3,295.2,101.4,308.2,100.1,323.7z"/>
		<g>
			<path class="st33" d="M154.1,341.9l-19-14.1c-4.5-3.4-11.3-2-15,3c-3.7,5-3,11.8,1.5,15.2l19,14.1
				C146.7,354.4,151.2,347.3,154.1,341.9z"/>
			<path class="st6" d="M173.7,370.4c3.7-5,3-11.8-1.5-15.2l-18.1-13.4c-2.9,5.4-7.4,12.5-13.5,18.2l18.1,13.4
				C163.3,376.8,170,375.4,173.7,370.4z"/>
		</g>
		<g>
			<path class="st0" d="M141.4,308.7c10.1-2.8,20.5,3.2,23.3,13.3c2.8,10.1-3.2,20.5-13.2,23.3c-10.1,2.8-20.5-3.2-23.3-13.3
				C125.4,322,131.3,311.5,141.4,308.7z"/>
			<path class="st26" d="M163.3,322.4c-2.5-9.1-11.7-14.5-20.8-12.4l9.3,33.7C160.7,340.8,165.8,331.4,163.3,322.4z"/>
			<path class="st6" d="M150.2,344.1l-9.3-33.7c-8.8,2.9-13.9,12.2-11.4,21.2C132.1,340.7,141.2,346.1,150.2,344.1z"/>
		</g>
		<g>
			<path class="st26" d="M177.7,317.6l11.3,23.6c2.7,5.6,0.3,12.4-5.3,15.1c-5.6,2.7-12.4,0.3-15.1-5.3l-11.3-23.5
				C164,322.4,171.8,319.3,177.7,317.6z"/>
			<g>
				<g>
					<path class="st6" d="M152.4,290.9c5.6-2.7,12.4-0.3,15.1,5.3l10.7,22.4c-5.9,1.7-13.7,4.8-20.4,9.8L147.1,306
						C144.4,300.3,146.8,293.6,152.4,290.9z"/>
				</g>
			</g>
			<path class="st6" d="M151.9,289.9c5.6-2.7,12.4-0.3,15.1,5.3l10.7,22.4c-5.9,1.7-13.7,4.8-20.4,9.8L146.6,305
				C143.9,299.4,146.3,292.6,151.9,289.9z"/>
		</g>
	</g>
	<g>
		<path class="st32" d="M231.9,187.4c0,0.5-0.1,1-0.1,1.5c-0.8,29.7,32.8,82.9,67.3,62.9c9.6-5.5,16.3-14.8,22.5-24
			c7.5-11,14.7-22.6,17.2-35.7c8.9-46.7-46.6-53.6-78.3-39.3C247.1,158.9,233.1,171.9,231.9,187.4z"/>
		<path class="st6" d="M307.3,187.5c-3.2-8.8-11.6-15-21.5-15v0c0,0,0,0,0,0c-12.6,0-22.9,10.2-22.9,22.9
			c0,12.6,10.2,22.9,22.9,22.9c0,0,0,0,0,0v0c0.1,0,0.3,0,0.4,0c0.2,0,0.5,0,0.7,0c0,0,0,0,0,0c11.3-0.6,20.4-9.4,21.6-20.5
			c0.1-0.8,0.1-1.5,0.1-2.3C308.7,192.6,308.2,189.9,307.3,187.5z"/>
		<g>
			<g>
				<path class="st32" d="M285.8,184.9c7,0,13.4,1.1,18.1,2.9c1.6,0.6,3,1.3,4.2,2.1c0.1,0.6,0.3,1.2,0.4,1.8c-1.2-1-2.9-2-5-2.8
					c-4.5-1.7-10.7-2.8-17.6-2.8c-6.9,0-13.1,1.1-17.6,2.8c-2.1,0.8-3.8,1.7-5,2.8c0.1-0.6,0.2-1.2,0.4-1.8c1.2-0.8,2.6-1.5,4.2-2.1
					C272.4,186,278.8,184.9,285.8,184.9L285.8,184.9z M308.1,200.7c-1.2,0.8-2.6,1.5-4.2,2.1c-4.6,1.8-11,2.9-18.1,2.9
					c-7,0-13.4-1.1-18.1-2.9c-1.6-0.6-3-1.3-4.2-2.1c-0.1-0.6-0.3-1.2-0.4-1.8c1.2,1,2.9,2,5,2.8c4.5,1.7,10.7,2.8,17.6,2.8
					c6.9,0,13.1-1.1,17.6-2.8c2.1-0.8,3.8-1.7,5-2.8C308.3,199.5,308.2,200.1,308.1,200.7z"/>
				<path class="st32" d="M275.4,195.3c0-7,1.1-13.4,2.9-18.1c0.6-1.6,1.3-3,2.1-4.2c0.6-0.1,1.2-0.3,1.8-0.4c-1,1.2-2,2.9-2.8,5
					c-1.7,4.5-2.8,10.7-2.8,17.6c0,6.9,1.1,13.1,2.8,17.6c0.8,2.1,1.7,3.8,2.8,5c-0.6-0.1-1.2-0.2-1.8-0.4c-0.8-1.2-1.5-2.6-2.1-4.2
					C276.6,208.8,275.4,202.4,275.4,195.3L275.4,195.3z M291.2,173.1c0.8,1.2,1.5,2.6,2.1,4.2c1.8,4.6,2.9,11,2.9,18.1
					c0,7-1.1,13.4-2.9,18.1c-0.6,1.6-1.3,3-2.1,4.2c-0.6,0.1-1.2,0.3-1.8,0.4c1-1.2,2-2.9,2.8-5c1.7-4.5,2.8-10.7,2.8-17.6
					c0-6.9-1.1-13.1-2.8-17.6c-0.8-2.1-1.7-3.8-2.8-5C290,172.8,290.6,173,291.2,173.1z"/>
			</g>
		</g>
		<g>
			<g>
				<path class="st32" d="M285.8,184.9c7,0,13.4,1.1,18.1,2.9c1.6,0.6,3,1.3,4.2,2.1c0.1,0.6,0.3,1.2,0.4,1.8c-1.2-1-2.9-2-5-2.8
					c-4.5-1.7-10.7-2.8-17.6-2.8V184.9L285.8,184.9z M308.1,200.7c-1.2,0.8-2.6,1.5-4.2,2.1c-4.6,1.8-11,2.9-18.1,2.9v-1.2
					c6.9,0,13.1-1.1,17.6-2.8c2.1-0.8,3.8-1.7,5-2.8C308.3,199.5,308.2,200.1,308.1,200.7z"/>
				<path class="st32" d="M291.2,173.1c0.8,1.2,1.5,2.6,2.1,4.2c1.8,4.6,2.9,11,2.9,18.1c0,7-1.1,13.4-2.9,18.1
					c-0.6,1.6-1.3,3-2.1,4.2c-0.6,0.1-1.2,0.3-1.8,0.4c1-1.2,2-2.9,2.8-5c1.7-4.5,2.8-10.7,2.8-17.6c0-6.9-1.1-13.1-2.8-17.6
					c-0.8-2.1-1.7-3.8-2.8-5C290,172.8,290.6,173,291.2,173.1z"/>
			</g>
		</g>
		<g>
			<path class="st33" d="M276.6,183.6c1.4,0,2.6,1.1,2.6,2.6s-1.1,2.6-2.6,2.6c-1.4,0-2.6-1.1-2.6-2.6S275.2,183.6,276.6,183.6z"/>
			<g>
				<path class="st33" d="M295.2,183.5c1.4,0,2.6,1.1,2.6,2.6s-1.1,2.6-2.6,2.6c-1.4,0-2.6-1.1-2.6-2.6S293.7,183.5,295.2,183.5z"/>
				<path class="st33" d="M295.1,202c1.4,0,2.6,1.1,2.6,2.6c0,1.4-1.1,2.6-2.6,2.6c-1.4,0-2.6-1.1-2.6-2.6
					C292.5,203.2,293.7,202,295.1,202z"/>
			</g>
			<path class="st33" d="M276.7,201.9c1.4,0,2.6,1.1,2.6,2.6c0,1.4-1.1,2.6-2.6,2.6c-1.4,0-2.6-1.1-2.6-2.6
				C274.1,203.1,275.3,201.9,276.7,201.9z"/>
		</g>
		<path class="st6" d="M272.4,220.6c-2.5-1.3-4.8-3-6.8-5c-5.2-5.2-8.4-12.3-8.4-20.2h0c0-7.9,3.2-15,8.4-20.2
			c2.6-2.6,5.8-4.8,9.3-6.2l0.6,1c-3.4,1.4-6.5,3.5-9.1,6c-5,5-8,11.8-8,19.4h0c0,7.6,3.1,14.5,8,19.4c1.9,1.9,4.2,3.6,6.6,4.9
			L272.4,220.6L272.4,220.6z M266.5,230.3l0.6-1c-3.2-1.8-6.1-4-8.7-6.5c-7-7-11.4-16.7-11.4-27.4h0c0-10.7,4.3-20.4,11.4-27.4
			c3.2-3.2,7-5.8,11.1-7.8l-0.6-1c-4.2,2-8.1,4.7-11.3,7.9c-7.2,7.2-11.7,17.2-11.7,28.2h0c0,11,4.5,21,11.7,28.2
			C260.3,226.2,263.2,228.4,266.5,230.3L266.5,230.3z M269.4,225.5l0.6-1c-2.8-1.5-5.4-3.5-7.7-5.7c-6-6-9.7-14.3-9.7-23.5h0
			c0-9.2,3.7-17.5,9.7-23.5c2.9-2.9,6.3-5.3,10.1-6.9l-0.6-1c-3.9,1.7-7.4,4.1-10.3,7.1c-6.2,6.2-10.1,14.8-10.1,24.3h0
			c0,9.5,3.8,18.1,10.1,24.3C263.9,222,266.5,223.9,269.4,225.5z"/>
		<path class="st6" d="M299.2,220.6c2.5-1.3,4.8-3,6.8-5c5.2-5.2,8.4-12.3,8.4-20.2h0c0-7.9-3.2-15-8.4-20.2
			c-2.6-2.6-5.8-4.8-9.3-6.2l-0.6,1c3.4,1.4,6.5,3.5,9.1,6c5,5,8,11.8,8,19.4h0c0,7.6-3.1,14.5-8,19.4c-1.9,1.9-4.2,3.6-6.6,4.9
			L299.2,220.6L299.2,220.6z M305.2,230.3l-0.6-1c3.2-1.8,6.1-4,8.7-6.5c7-7,11.4-16.7,11.4-27.4h0c0-10.7-4.3-20.4-11.4-27.4
			c-3.2-3.2-7-5.8-11.1-7.8l0.6-1c4.2,2,8.1,4.7,11.3,7.9c7.2,7.2,11.7,17.2,11.7,28.2h0c0,11-4.5,21-11.7,28.2
			C311.4,226.2,308.4,228.4,305.2,230.3L305.2,230.3z M302.3,225.5l-0.6-1c2.8-1.5,5.4-3.5,7.7-5.7c6-6,9.7-14.3,9.7-23.5h0
			c0-9.2-3.7-17.5-9.7-23.5c-2.9-2.9-6.3-5.3-10.1-6.9l0.6-1c3.9,1.7,7.4,4.1,10.3,7.1c6.2,6.2,10.1,14.8,10.1,24.3h0
			c0,9.5-3.8,18.1-10.1,24.3C307.8,222,305.2,223.9,302.3,225.5z"/>
	</g>
	<g>
		<path class="st32" d="M445.2,183.8c-0.2,0.3-0.5,0.7-0.7,1c-13.3,21.6-11.2,75.5,22.9,75.4c9.5,0,18.4-4,27-8.1
			c10.2-5,20.6-10.5,28-19.1c26.6-30.7-11.5-59.7-41.1-62.6C468.7,169.2,452.8,172.9,445.2,183.8z"/>
		<g>
			<g>
				<path class="st6" d="M493.9,206l-1.4-0.4l-8.4-2.6l-8.4-2.6l-1.4-0.4c-5.8-1.8-10.2-0.6-11.3,3.1l-6.6,21
					c-1.2,3.7,2.3,5.6,8.1,7.4l9.8,3.1l9.8,3.1c5.8,1.8,9.7,2.2,10.9-1.5l6.6-21C502.7,211.3,499.7,207.8,493.9,206z M489.3,229.5
					l-12.3-3.8l-12.3-3.8l5.5-17.5l12.3,3.8l12.3,3.8L489.3,229.5z"/>
			</g>
		</g>
		<path class="st26" d="M465.8,222.2l5.5-17.5l11.2,3.5l1.6-5.3l-8.4-2.6l-1.4-0.4c-5.8-1.8-10.2-0.6-11.3,3.1l-6.6,21
			c-1.2,3.7,2.3,5.6,8.1,7.4l9.8,3.1l2.7-8.8L465.8,222.2z"/>
		<path class="st33" d="M493.9,206l-1.4-0.4l-8.4-2.6l-1.6,5.3l11.2,3.5l-5.5,17.5l-11.2-3.5l-2.7,8.8l9.8,3.1
			c5.8,1.8,9.7,2.2,10.9-1.5l6.6-21C502.7,211.3,499.7,207.8,493.9,206z"/>
		<g>
			<g>
				<path class="st6" d="M497.1,190.8l-8.4-2.6l-8.4-2.6c-1.6-0.5-3.2,0.4-3.7,1.9l-2.8,9.1c-0.5,1.5,0.4,3.2,1.9,3.7l8.4,2.6
					l8.4,2.6c1.5,0.5,3.2-0.4,3.7-1.9l2.8-9.1C499.5,193,498.7,191.3,497.1,190.8z"/>
			</g>
		</g>
		<path class="st6" d="M492.5,205.6c1.5,0.5,3.2-0.4,3.7-1.9l2.8-9.1c0.5-1.5-0.4-3.2-1.9-3.7l-8.4-2.6l-4.6,14.7L492.5,205.6z"/>
		<g>
			<g>
				<path class="st6" d="M488.7,188.2l-8.4-2.6c-1.6-0.5-3.2,0.4-3.7,1.9l-2.8,9.1c-0.5,1.5,0.4,3.2,1.9,3.7l8.4,2.6L488.7,188.2z"
					/>
			</g>
		</g>
		<g>
			<g>
				
					<rect x="464.8" y="209.1" transform="matrix(0.2981 -0.9545 0.9545 0.2981 127.3161 603.4269)" class="st6" width="18.4" height="12.1"/>
			</g>
		</g>
		<g>
			<g>
				
					<rect x="464.8" y="209.1" transform="matrix(0.2981 -0.9545 0.9545 0.2981 127.3161 603.4269)" class="st6" width="18.4" height="12.1"/>
			</g>
		</g>
		<g>
			<g>
				
					<rect x="476.4" y="212.7" transform="matrix(0.2982 -0.9545 0.9545 0.2982 131.9588 616.9751)" class="st6" width="18.4" height="12.1"/>
			</g>
		</g>
		<g>
			
				<rect x="473.6" y="215.6" transform="matrix(0.2982 -0.9545 0.9545 0.2982 130.019 610.0328)" class="st26" width="12.5" height="1.9"/>
			
				<rect x="478.9" y="210.4" transform="matrix(0.2983 -0.9545 0.9545 0.2983 129.9943 610.0102)" class="st26" width="1.9" height="12.5"/>
		</g>
	</g>
	<path class="st34" d="M191.1,520.2h-49.4c-0.4,0-0.8-0.4-0.8-0.8v-5.4c0-0.4,0.4-0.8,0.8-0.8h49.4c0.4,0,0.8,0.4,0.8,0.8v5.4
		C191.9,519.8,191.5,520.2,191.1,520.2z"/>
	<path class="st34" d="M326.7,527.2H284c-0.4,0-0.8-0.4-0.8-0.8V521c0-0.4,0.4-0.8,0.8-0.8h42.7c0.4,0,0.8,0.4,0.8,0.8v5.4
		C327.5,526.8,327.2,527.2,326.7,527.2z"/>
	<path class="st34" d="M299.7,521.6H199.4c-0.4,0-0.8-0.4-0.8-0.8v-5.4c0-0.4,0.4-0.8,0.8-0.8h100.3c0.4,0,0.8,0.4,0.8,0.8v5.4
		C300.5,521.2,300.1,521.6,299.7,521.6z"/>
	<g>
		<polygon class="st13" points="206.4,515.5 197.4,515.5 197.4,518.1 201.9,518.1 		"/>
		<polygon class="st13" points="282.9,515.5 291.9,515.5 291.9,518.1 287.4,518.1 		"/>
		<rect x="195" y="509.8" class="st35" width="98.2" height="5.7"/>
		<path class="st35" d="M303.6,436.4v64.9c0,5.8-4.6,10.5-10.3,10.6c-0.1,0-0.2,0-0.3,0h-97.7c-0.1,0-0.2,0-0.3,0
			c-5.7-0.1-10.3-4.8-10.3-10.6v-64.9c0-5.9,4.7-10.6,10.6-10.6H293C298.9,425.8,303.6,430.5,303.6,436.4z"/>
		<path class="st13" d="M300.6,501.8c0,5.6-4.5,10.1-10.1,10.1h-92.8c-5.6,0-10.1-4.5-10.1-10.1v-61.5c0-5.6,4.5-10.1,10.1-10.1
			h92.8c5.6,0,10.1,4.5,10.1,10.1V501.8z"/>
		<path class="st36" d="M300.6,501.8c0,5.6-4.5,10.1-10.1,10.1h-92.8c-5.6,0-10.1-4.5-10.1-10.1v-61.5c0-5.6,4.5-10.1,10.1-10.1
			h92.8c5.6,0,10.1,4.5,10.1,10.1V501.8z"/>
		<path class="st10" d="M274,470.1c0,16.5-13.4,29.9-29.9,29.9c-16.5,0-29.9-13.4-29.9-29.9c0-16.5,13.4-29.9,29.9-29.9
			C260.7,440.2,274,453.6,274,470.1z"/>
		<g>
			<g>
				<path class="st6" d="M219.1,427.3c0,1.3-1.1,2.4-2.5,2.4h-13.2c-1.4,0-2.5-1.1-2.5-2.4l0,0c0-1.3,1.1-2.4,2.5-2.4h13.2
					C218,425,219.1,426,219.1,427.3L219.1,427.3z"/>
			</g>
		</g>
		<path class="st35" d="M219.1,427.4c0,0,0-0.1,0-0.1c0-1.3-1.1-2.4-2.5-2.4h-13.2c-1.4,0-2.5,1.1-2.5,2.4c0,0,0,0.1,0,0.1H219.1z"
			/>
		<g>
			<g>
				<path class="st6" d="M288.3,427.3C288.3,427.3,288.3,427.4,288.3,427.3c0,1.3-1.2,2.4-2.5,2.4h-13.2c-1.4,0-2.5-1-2.5-2.3
					c0,0,0,0,0,0c0-0.6,0.2-1.1,0.6-1.5c0.5-0.5,1.1-0.8,1.9-0.8h13.2c0.2,0,0.4,0,0.7,0.1c0.5,0.1,0.9,0.4,1.3,0.7
					C288.1,426.2,288.3,426.7,288.3,427.3z"/>
			</g>
		</g>
		<path class="st35" d="M288.3,427.3C288.3,427.3,288.3,427.4,288.3,427.3c0,0.1,0,0.1,0,0.1H270c0,0,0,0,0-0.1c0,0,0,0,0,0
			c0-0.6,0.2-1.1,0.6-1.5c0.5-0.5,1.1-0.8,1.9-0.8h13.2c0.2,0,0.4,0,0.7,0.1c0.5,0.1,0.9,0.4,1.3,0.7
			C288.1,426.2,288.3,426.7,288.3,427.3z"/>
		<rect x="222.7" y="425.8" class="st13" width="43.4" height="2.9"/>
		<path class="st10" d="M227.8,427.2v-5.5c0-2.8,2.3-5.1,5.1-5.1h23c2.8,0,5.1,2.3,5.1,5.1v5.5h3.3v-8.8c0-3.4-2.8-6.2-6.2-6.2
			h-27.6c-3.4,0-6.2,2.8-6.2,6.2v8.8H227.8z"/>
		<path class="st13" d="M229.4,427.2v-4.7c0-2.5,2.1-4.4,4.7-4.4h20.9c2.6,0,4.7,2,4.7,4.4v4.7h3v-7.6c0-2.9-2.5-5.3-5.6-5.3h-25
			c-3.1,0-5.6,2.4-5.6,5.3v7.6H229.4z"/>
		<path class="st13" d="M244.2,440.2C244.2,440.2,244.2,440.2,244.2,440.2c-16.6,0-30,13.4-30,29.9c0,16.5,13.4,29.9,29.9,29.9
			c0,0,0,0,0.1,0V440.2z"/>
		<path class="st37" d="M256.4,464.2h-6.3v-6.3c0-1.3-1.1-2.4-2.4-2.4h-7c-1.3,0-2.4,1.1-2.4,2.4v6.3h-6.3c-1.3,0-2.4,1.1-2.4,2.4v7
			c0,1.3,1.1,2.4,2.4,2.4h6.3v6.3c0,1.3,1.1,2.4,2.4,2.4h7c1.3,0,2.4-1.1,2.4-2.4V476h6.3c1.3,0,2.4-1.1,2.4-2.4v-7
			C258.8,465.3,257.7,464.2,256.4,464.2z"/>
	</g>
	<g>
		<g>
			<path class="st38" d="M184.3,468.3l-5.2,40.1c-0.6,4.6-4.5,7.9-9,7.8c-0.4,0-0.7,0-1.1-0.1l-20.3-2.6c-4.9-0.6-8.4-5.1-7.8-10
				l5.2-40.1c0.6-4.9,5.1-8.4,10.1-7.8l20.3,2.6C181.5,458.9,185,463.4,184.3,468.3z"/>
			
				<rect x="153.9" y="469" transform="matrix(0.1278 -0.9918 0.9918 0.1278 -342.6361 586.9033)" class="st27" width="17" height="38.5"/>
			
				<rect x="164.2" y="445.7" transform="matrix(0.1278 -0.9918 0.9918 0.1278 -305.2462 561.6979)" class="st27" width="5.1" height="17.3"/>
			<polygon class="st0" points="169.3,486.7 165,486.2 165.6,482 160.9,481.4 160.3,485.6 156.1,485 155.5,489.8 159.7,490.3 
				159.2,494.6 163.9,495.2 164.4,490.9 168.7,491.5 			"/>
		</g>
		<path class="st39" d="M184.3,468.3l-5.2,40.1c-0.6,4.6-4.5,7.9-9,7.8l5.6-43.7c0.5-3.8,1.3-7.3-2.5-7.8l0,0
			c-2.5-0.3-4.4-2.2-4.8-4.7l-1.3-8.2l8.5,1.1L175,458l1.6,0.2C181.5,458.9,185,463.4,184.3,468.3z"/>
	</g>
	<path class="st40" d="M428.9,526.3c0.1-0.2,0.1-0.4,0.2-0.6C429.1,525.9,429,526.1,428.9,526.3z"/>
	<path class="st40" d="M452.5,504.4c-0.4,0.3-0.9,0.6-1.3,1c0.3-0.3,0.6-0.6,0.9-1H452.5z"/>
	<path class="st39" d="M303.6,436.4v14.8l-3,1l-7.3,2.4c-1.7,0.6-3.4,0.8-5.2,0.8c-3.4,0-6.7-1-9.5-3.1c-2.7-2-4-5.3-3.3-8.6
		l2.8-13.5l0.1-0.6l0.5-2.3l0.3-1.6l0.1-0.7l7.3,0c0.5,0.1,0.9,0.4,1.3,0.7h5.3C298.9,425.8,303.6,430.5,303.6,436.4z"/>
	<path class="st40" d="M397.8,352.1c0.1,0.4,0.2,0.8,0.3,1.2c-15.5,0.7-30.2-0.2-32.2,0c-4.5,0.4-16.5-20.5-16.5-20.5
		s15.2-31,0.4-60.8c-0.9-1.7,1.4-7.7,1.8-9.4c1.5-6.8,3.5-13.6,6.3-19.9c3.5-8.1,9.1-14.6,16.1-18c3.8,6.1,11.1,13.8,26.3,18
		C427.4,250.1,393.1,332.8,397.8,352.1z"/>
	<path class="st6" d="M474.5,436.2c-0.8,0.2-1.5,0.4-2.3,0.4c-1.5,0-3.1-0.5-4.4-1.4l-52-35.7l0.9-9.2l-74.9,9.3l7.4,14.9l-3.3,1.6
		l-5.8-3.5l-16.1,9.2l-0.4,5.2l-40.2,19.7c-4.4,0-7.8-3.6-7.8-7.8c0-0.7,0.1-1.4,0.3-2.1l23.2-84.9c2.8-10.2,10.4-18.4,20.3-22.1
		l46-16.7l25.9-3.5l46.7,18.1c12.1,4.7,21.3,14.7,25,27.1l19.5,66.1C484.3,427.5,480.8,434.2,474.5,436.2z"/>
	<path class="st41" d="M391.6,282.5c0.2,8.2-2,16.8-1.4,25c0.1,1.7,0.9,2.2,3,3.6c2.9,4.3-5.4,32.1-10.6,32.9
		c-0.3,0.1-8.8-6.6-14.7-8.1c-3.1-0.8-8.6-18.8-8.9-19c-1.2-0.9,3.1,0,2.2-2.7c1.1-0.3,3.8-2.9,4.6-3.6c4.8-4.5,3.3-15.6-0.7-19.8
		C362,287.8,391.6,282.5,391.6,282.5z"/>
	<path class="st42" d="M352.5,266.2c4.1,0,7.4,3.3,7.4,7.4c0,4.1-3.3,7.4-7.4,7.4c-4.1,0-7.4-3.3-7.4-7.4
		C345.1,269.6,348.4,266.2,352.5,266.2z"/>
	<path class="st41" d="M400.2,280.8c0,7.8-2.9,14.9-7.7,19.9c-0.7,0.7-1.4,1.4-2.2,2.1c-4.2,3.6-9.6,5.7-15.3,5.8h-0.1
		c-13.9,0-25.3-12.3-25.3-27.5l-0.1-25.1c-0.1-15.2,11.3-27.7,25.2-27.8h0c13.6-0.1,24.9,11.7,25.4,26.5c0,0.3,0,0.7,0,1l0.1,14.1
		L400.2,280.8z"/>
	<rect x="349.4" y="420.6" class="st43" width="60.2" height="96.1"/>
	<path class="st40" d="M349.2,275c0.1,1.5,0.1,3-0.1,4.5C349.1,279.5,348.9,277.5,349.2,275z"/>
	<path class="st44" d="M384.4,516.7c-6-4.7-4.9-93.6-4.9-93.6l-7.2,93.6H384.4z"/>
	<path class="st40" d="M419,351.1c-6.3,1.2-13.7,1.9-20.9,2.2c-0.1-0.4-0.2-0.9-0.3-1.2c-2.1-8.7,3.7-30.5,8.2-52.3
		c2.8-13.6,5.1-27.3,4.7-37.9c-0.1-3.2-0.5-6.2-1.3-8.8c-0.1-0.2-0.1-0.4-0.2-0.7c-0.3-7.9-4.9-15.5-10.6-20.9
		c-6.4-6-14.4-8.3-22.8-7.9c6.7-2.7,14.6-2.6,23,1.3c9.7,4.5,14.4,15.6,17.7,25.2c4.2,12.1,5.8,25,5.6,37.7
		c-0.8,40.9,6,27.2,13.4,49.2c0.2,0.6,0.3,1.1,0.4,1.6C437,345.3,429.4,349,419,351.1z"/>
	<path class="st34" d="M503.8,524H385.2c-0.4,0-0.8-0.4-0.8-0.8v-5.4c0-0.4,0.4-0.8,0.8-0.8h118.6c0.4,0,0.8,0.4,0.8,0.8v5.4
		C504.6,523.7,504.2,524,503.8,524z"/>
	<path class="st42" d="M400,254.7c0,0.3,0,0.7,0,1l0.1,14.1l0.1,11c0,7.8-2.9,14.9-7.7,19.9c0.7-2,1.2-4.6,1.4-5.6
		c2.7-9.9,0.6-18.1-5.2-26.4c-3-4.4-5.6-9.1-7.8-13.9c-2.8-5.9-5.3-12.1-7.2-18.4"/>
	<g>
		<g>
			<path class="st6" d="M437.3,517.3l-36.5,3.2c-5.8,0.5-11-3.7-11.6-9.5l-9.8-86.8l-3,91.1c-0.1,3.3-2.6,6-5.9,6.3l-40.8,1
				c-0.6,0.1-1.2,0.1-1.7,0.1c-7.7-0.3-13.8-7.1-13-15l3.4-31.2l4-36.6l1-9.5l0.6-8.6l2.2-30.4l0.7-9l5.2-0.5l96.8-9l0.2,1.2
				l2.3,11.2l5.9,29l1.7,8.5l14.8,72.2C456.1,505.9,448.4,516.3,437.3,517.3z"/>
		</g>
	</g>
	<path class="st45" d="M441.7,393.1l-7.9-25.5c-2.6,3-1.2,8.5,0.2,13.1c0.3,1-0.8,1.8-1.6,1.2c-4.5-3.4-12.1-7.7-16-7.1
		c4.1,3.1,8.4,6,12.5,9C433.2,386.9,437.8,389.4,441.7,393.1z"/>
	<path class="st40" d="M342.7,306.4l63.9-2c6.3-0.2,11.5,4.8,11.6,11l1.6,92.5c0.1,6-4.5,11-10.5,11.4l-52.1,3.6
		c-5.9,0.4-11.1-3.8-11.9-9.6l-13.3-94.1C330.9,312.6,336,306.6,342.7,306.4z"/>
	<path class="st46" d="M419,351.1c-9.5-23-12.6-39.1-12.9-51.3c-0.5-17.6,4.7-27.1,4.7-37.9c0-2.8-0.4-5.7-1.3-8.8
		c-0.1-0.2-0.1-0.4-0.2-0.7c-0.3-7.9-4.9-15.5-10.6-20.9c-6.4-6-14.4-8.3-22.8-7.9c6.7-2.7,14.6-2.6,23,1.3
		c9.7,4.5,14.4,15.6,17.7,25.2c4.2,12.1,5.8,25,5.6,37.7c-0.8,40.9,6,27.2,13.4,49.2l0.4,1.6C437,345.3,429.4,349,419,351.1z"/>
	<path class="st26" d="M327.4,458.2c0,0,41.1,9.7,43.5,1.7"/>
	<path class="st38" d="M345.7,420c-0.7-0.8-1.2-1.8-1.6-2.8C345.3,416.3,351.2,412,345.7,420z"/>
	<path class="st26" d="M439.1,422.9c-9.1-6.4-19.4-20.6-19.4-20.6l17.7,12.1L439.1,422.9z"/>
	<path class="st27" d="M326.3,391l-2,15.3l-12.6,3.2l12.9-35.3l0,0C326.2,379.6,326.8,385.3,326.3,391z"/>
	<path class="st39" d="M352.4,424l-30,15.9l1-9.5l0.2-3.4l20.4-10l0.7-0.3l1.2-0.6l1.6,0.9c-0.4,0.7-0.9,1.6-1.8,2.9
		C347.4,422,349.7,423.5,352.4,424z"/>
	<path class="st40" d="M409.3,252.5c-1.5-5-4.4-8.5-9.1-9.8c-15.3-4.2-22.6-11.9-26.3-18c0.7-0.3,1.3-0.6,2-0.9
		c8.4-0.4,16.4,1.9,22.8,7.9C404.4,236.9,409,244.6,409.3,252.5z"/>
	<path class="st38" d="M417.9,409.2c0,1.1-0.1,2.3-0.4,3.3c-1.3,4.4-5.2,7.8-10,8.1l-52.1,3.6c-1,0.1-2,0-2.9-0.2
		c-2.4-0.5-4.6-1.7-6.2-3.5c-0.2-0.2-0.3-0.4-0.5-0.6c0,0-0.5-0.6-1-1.2c-0.1-0.3-0.3-0.6-0.4-0.9c-0.2-0.4-0.3-0.7-0.3-0.7
		c0,0,0-0.1,0-0.1c-0.3-0.8-0.5-1.6-0.6-2.5l-12.5-88.4l-0.8-5.7c-0.6-4.4,1.4-8.6,4.8-10.9c1.3-0.9,2.9-1.5,4.6-1.8
		c0.4-0.1,0.9-0.1,1.4-0.1l8-0.3l55.8-1.8c1.7-0.1,3.4,0.3,4.9,0.9c3.9,1.7,6.6,5.6,6.7,10.1l1,58.9l0.2,9.9l0.1,6.5L417.9,409.2z"
		/>
	<g>
		<path class="st47" d="M430.4,518.7c-2.9-6.2-5.8-12.4-8.3-18.7c-6.8-17.4-10.6-37.1-4.2-54.7"/>
		<path class="st33" d="M418.2,435c0.5-0.7,1.2-1.5,2.1-1.5c0.9,0,1.6,0.9,1.8,1.7c0.2,0.9,0,1.8-0.2,2.7c-0.4,1.8-2.8,13.7-5.8,8.8
			C414.1,443.6,416.3,437.6,418.2,435z"/>
		<path class="st33" d="M403.6,462.8c-0.8-0.5-1.6-1.1-1.7-1.9c-0.2-0.8,0.4-1.5,1.2-1.6c0.7-0.2,1.6,0,2.4,0.2
			c1.7,0.4,12.7,2.5,9,5.2C412.1,466.4,406.3,464.4,403.6,462.8z"/>
		<path class="st33" d="M425.2,503.6c-0.7-0.2-1.6-0.5-1.9-1.1c-0.3-0.6,0-1.3,0.5-1.6c0.6-0.3,1.3-0.4,2-0.5
			c1.5-0.1,11.1-1.2,8.7,2C433.1,504.4,427.8,504.3,425.2,503.6z"/>
		<path class="st33" d="M412.1,499.9c-0.7-0.1-1.5-0.3-1.9-0.9c-0.4-0.5-0.2-1.2,0.3-1.6c0.5-0.4,1.2-0.5,1.8-0.6
			c1.4-0.3,10.2-2.3,8.4,0.9C419.5,499.8,414.6,500.2,412.1,499.9z"/>
		<path class="st33" d="M402.5,450.6c-1-1.1-1.8-2.8-1-4c0.5-0.8,1.6-1,2.5-0.9c0.9,0.1,1.8,0.6,2.6,1c3,1.7,6.1,3.3,8.4,5.8
			c3,3.1-3.7,2.6-5.2,2.3C407,454.2,404.4,452.7,402.5,450.6z"/>
		<path class="st33" d="M403.9,481.7c-1.2-0.5-2.5-1.6-2.3-2.9c0.2-0.8,0.9-1.4,1.7-1.7c0.8-0.2,1.7-0.2,2.5-0.1
			c3,0.3,6.1,0.5,9,1.7c3.5,1.4-2,3.4-3.4,3.7C409,483,406.3,482.8,403.9,481.7z"/>
		<path class="st33" d="M422.2,465.7c1.4,0,2.8,0,4,0.2c1.3,0.2,2.5,0.8,3.1,1.7c0.1,0.1,0.2,0.3,0.1,0.4c0,0.3-0.4,0.5-0.7,0.7
			c-2.2,1.2-4.9,1.5-7.3,1.2c-2.4-0.3-4.5-1.2-6.4-2.3C411.7,465.5,421,465.7,422.2,465.7z"/>
		<path class="st33" d="M422.4,457.4c1.4,0,2.8,0,4.1,0.3c1.3,0.3,2.5,0.9,3.2,2c0.1,0.1,0.2,0.3,0.2,0.4c0,0.3-0.4,0.6-0.7,0.8
			c-2.2,1.2-4.9,1.6-7.3,1.2c-2.4-0.4-4.6-1.5-6.5-2.8C411.9,457,421.3,457.4,422.4,457.4z"/>
		<path class="st33" d="M425.4,492.3c1,0,1.9,0.1,2.9,0.4c0.9,0.3,1.8,0.9,2.3,1.7c0.1,0.1,0.1,0.2,0.1,0.4c0,0.3-0.2,0.5-0.4,0.6
			c-1.5,1-3.4,1.1-5.1,0.7c-1.7-0.4-3.3-1.3-4.7-2.4C418,491.7,424.6,492.3,425.4,492.3z"/>
		<path class="st33" d="M424.2,483.9c1.2,0.1,2.4,0.3,3.6,0.6c1.1,0.4,2.1,0.9,2.5,1.8c0.1,0.1,0.1,0.2,0.1,0.3
			c-0.1,0.2-0.4,0.4-0.7,0.5c-2.1,0.7-4.5,0.7-6.6,0.1c-2.1-0.5-3.9-1.5-5.4-2.6C414.9,482.5,423.2,483.8,424.2,483.9z"/>
		<path class="st33" d="M414.9,470.7c-1.9-1.5-4.5-2.1-6.9-1.8c-0.8,0.1-1.7,0.4-2.3,0.9c-0.6,0.6-0.9,1.5-0.5,2.3
			c0.5,1,1.9,1.2,3,1.1c1.7-0.1,3.4-0.5,5-1c0.5-0.2,1-0.4,1.3-0.8c0.3-0.4,0.3-1.1-0.1-1.4"/>
		<path class="st33" d="M418.1,489.3c-1.9-1.5-4.5-2.1-6.9-1.8c-0.8,0.1-1.7,0.4-2.3,0.9c-0.6,0.6-0.9,1.5-0.5,2.3
			c0.5,1,1.9,1.2,3,1.1c1.7-0.1,3.4-0.5,5-1c0.5-0.2,1-0.4,1.3-0.8c0.3-0.4,0.3-1.1-0.1-1.4"/>
		<path class="st33" d="M428,474.5c0.7,0.1,1.4,0.4,1.6,1.1c0.2,0.7-0.4,1.4-1.1,1.7c-1.7,0.9-3.7,0.6-5.6,0.2
			c-2-0.4-4.1-0.7-6.1-1.1c-2.6-0.5-1.4-1.4,0.5-1.8C420.9,473.7,424.6,473.7,428,474.5z"/>
	</g>
	<path class="st39" d="M352.8,381c0,0,6.3,3.2,3.2,12.6c-3.2,9.5-6.3,9.5-6.3,9.5L352.8,381z"/>
	<path class="st46" d="M409.3,252.5c-1.5-5-4.4-8.5-9.1-9.8c-15.3-4.2-22.6-11.9-26.3-18c0.7-0.3,1.3-0.6,2-0.9
		c8.4-0.4,16.4,1.9,22.8,7.9C404.4,236.9,409,244.6,409.3,252.5z"/>
	<path class="st40" d="M408.8,257.9c-0.3,1.4-1.7,9.3-3.6,9.4c-2.8,0-4.1,3.2-4.6,6.8c-0.9-3.1-2.1-6-3.8-8.6
		c-3.4-5.3-9.1-6.6-14.8-7.7c-4.3-0.8-8.5-2.7-11.3-6.2c-0.7-0.9-3.9-4.8-3.5-5.9c-0.2,0.5-5.4,14.7-12.2,19
		c-3.9,2.5-5.2,7-5.6,10.3c-0.8-8.7-6.9-16.6-7.4-25.1c-0.1-1.4,0-2.8,0.3-4.3c0.3-1.4,0.7-2.7,1.4-4.1c4.5-9.5,16.1-14.8,25.8-16.8
		c2.2-0.5,4.4-0.7,6.6-0.8c-0.7,0.3-1.4,0.6-2,0.9c3.8,6.1,11.1,13.8,26.3,18c4.7,1.3,7.5,4.8,9.1,9.8
		C409.3,254.3,409.2,256.1,408.8,257.9z"/>
	<path class="st42" d="M401.8,265.9c4.1,0,7.4,3.3,7.4,7.4c0,4.1-3.3,7.4-7.4,7.4c-4.1,0-7.4-3.3-7.4-7.4
		C394.4,269.3,397.7,266,401.8,265.9z"/>
	<polygon class="st6" points="345.9,416.1 323.7,427 324.1,421.9 340.2,412.7 	"/>
	<path class="st39" d="M370.7,403.9l-25.6,14.2c-0.2-0.2-0.3-0.4-0.5-0.6c0,0-0.5-0.6-1-1.2c-0.1-0.3-0.3-0.6-0.4-0.9l0.3-1.2
		l22.1-13.2c0.8-0.4,1.6-0.9,2.3-1.5l10.3-9.2c0.7-0.7,1.1-1.7,1.4-2.8c0.2,0.2,0.4,0.4,0.5,0.6
		C383.4,394.4,370.7,403.9,370.7,403.9z"/>
	<path class="st41" d="M380.2,384.4c-0.7-1.3-2.3-1.7-3.5-1l-12.3,7.3l12.7-9.3c0.3-0.2,0.4-0.5,0.4-0.8c0-0.2,0-0.3-0.1-0.4
		c-0.4-0.8-1.1-1.2-1.9-1.2c-0.4,0-0.8,0.1-1.2,0.4l-19.4,12.4l0.3-4.8c0.2-3-0.6-5.9-2.2-8.3c0,0-0.1-0.1-0.1-0.1
		c-0.5-0.2-1.1,0.2-1.3,0.7l-3.7,12.3l-6.5,11.3l1.3,15.1l2-1.2l22.1-13.2c0.8-0.4,1.6-0.9,2.3-1.5l10.3-9.2
		c0.7-0.7,1.1-1.7,1.4-2.8C381.2,388,381,385.9,380.2,384.4z"/>
	<g>
		<path class="st27" d="M493.3,519.9c0.3,0,1.6-1,1.7-1.5c0.4-2.5-0.8-5.1-2.6-6.8c-1.9-1.7-4.3-2.6-6.8-2.9
			c-1.9-0.2-3.9-0.1-5.6-1.2c-0.8-0.5-1.4-1.3-1.6-2.2c-0.5-2.4,2.1-4,3.9-5.8c3.1-3.1,3.6-8.4,1.2-12c-2.4-3.6-7.5-5.2-11.5-3.5
			c-2.3,0.9-4.6,2.8-7,1.6c-0.9-0.5-1.6-1.3-1.9-2.3c-0.8-2.4-0.1-4.8,0.5-7.1c0.7-3,1-6.1,0.3-9c-0.8-2.9-2.8-5.7-5.7-6.7
			c-4.1-1.4-8.2,1-11.1,3.7c-5.7,5.3-5.2,12-7.8,18.6c-4.1,10.6-15.7,13.6-25.9,15.1c-12.5,1.9-28.4,3.4-31.6,18.1
			c-0.2,0.7-0.3,1.4-0.1,2.1c1.3,5.2,13,3.1,16.6,2.8c25.6-2.3,51.5-0.8,77.2-1C481.2,520,487.3,520,493.3,519.9z"/>
		<g>
			<g>
				<path class="st48" d="M400.5,514.4c8.7-2.8,17.9-3.7,26.5-6.7c7-2.5,14-6.8,17.6-13.4c4-7.2,4.1-16.8,5.3-24.8"/>
				<path class="st48" d="M474.7,493.6c-1.7,5-30.9,6.8-39.5,11"/>
				<path class="st48" d="M485.7,514.5c0,0-33.6-0.4-50.5-10"/>
			</g>
		</g>
	</g>
	<g>
		<path class="st10" d="M315.4,486.7v30.6c0,3.5-2.6,6.4-6,6.8c-0.3,0-0.5,0-0.8,0H293c-3.8,0-6.8-3-6.8-6.8v-30.6
			c0-3.8,3-6.8,6.8-6.8h15.6C312.3,479.9,315.4,482.9,315.4,486.7z"/>
		<rect x="286.2" y="497.4" class="st13" width="29.2" height="12.9"/>
		<rect x="294.3" y="476" class="st13" width="13.1" height="3.9"/>
		<polygon class="st37" points="305.9,502 302.6,502 302.6,498.8 299,498.8 299,502 295.8,502 295.8,505.6 299,505.6 299,508.9 
			302.6,508.9 302.6,505.6 305.9,505.6 		"/>
		<path class="st39" d="M315.4,486.7v30.6c0,3.5-2.6,6.4-6,6.8v-33.4c0-2.9,0.3-5.6-2.7-5.6l0,0c-1.9,0-3.6-1.2-4.1-3.1l-1.8-6h6.5
			v3.9h1.2C312.3,479.9,315.4,482.9,315.4,486.7z"/>
	</g>
	<g class="st49">
		<g>
			<g>
				<path class="st6" d="M315.4,486.7v30.6c0,3.5-2.6,6.4-6,6.8c-0.3,0-0.5,0-0.8,0H293c-3.8,0-6.8-3-6.8-6.8v-30.6
					c0-3.8,3-6.8,6.8-6.8h15.6C312.3,479.9,315.4,482.9,315.4,486.7z"/>
			</g>
			<g>
				<rect x="286.2" y="497.4" class="st6" width="29.2" height="12.9"/>
			</g>
			<g>
				<rect x="294.3" y="476" class="st6" width="13.1" height="3.9"/>
			</g>
			<g class="st50">
				<polygon class="st6" points="305.9,502 302.6,502 302.6,498.8 299,498.8 299,502 295.8,502 295.8,505.6 299,505.6 299,508.9 
					302.6,508.9 302.6,505.6 305.9,505.6 				"/>
			</g>
			<path class="st51" d="M315.4,486.7v30.6c0,3.5-2.6,6.4-6,6.8v-33.4c0-2.9,0.3-5.6-2.7-5.6l0,0c-1.9,0-3.6-1.2-4.1-3.1l-1.8-6h6.5
				v3.9h1.2C312.3,479.9,315.4,482.9,315.4,486.7z"/>
		</g>
	</g>
	<path class="st52" d="M327.9,522.6c-7.7-0.3-13.8-7.1-13-15l3.4-31.2C320.9,480.8,335.8,507.9,327.9,522.6z"/>
	<defs>
		<filter id="Adobe_OpacityMaskFilter_8_" filterUnits="userSpaceOnUse" x="330" y="309.5" width="87.9" height="102.9">
			<feFlood  style="flood-color:white;flood-opacity:1" result="back"/>
			<feBlend  in="SourceGraphic" in2="back" mode="normal"/>
		</filter>
	</defs>
	<mask maskUnits="userSpaceOnUse" x="330" y="309.5" width="87.9" height="102.9" id="SVGID_13_">
		<g class="st53">
			<defs>
				<filter id="Adobe_OpacityMaskFilter_9_" filterUnits="userSpaceOnUse" x="330" y="309.5" width="87.9" height="102.9">
					<feFlood  style="flood-color:white;flood-opacity:1" result="back"/>
					<feBlend  in="SourceGraphic" in2="back" mode="normal"/>
				</filter>
			</defs>
			<mask maskUnits="userSpaceOnUse" x="330" y="309.5" width="87.9" height="102.9" id="SVGID_13_">
			</mask>
			<linearGradient id="SVGID_14_" gradientUnits="userSpaceOnUse" x1="426.6616" y1="400.8569" x2="325.3513" y2="320.8218">
				<stop  offset="0" style="stop-color:#000000"/>
				<stop  offset="1" style="stop-color:#FFFFFF"/>
			</linearGradient>
			<path class="st55" d="M417.9,409.2c0,1.1-0.1,2.3-0.4,3.3l-86.6-86.3l-0.8-5.7c-0.6-4.4,1.4-8.6,4.8-10.9l82.7,82.4L417.9,409.2z
				"/>
		</g>
	</mask>
	<linearGradient id="SVGID_15_" gradientUnits="userSpaceOnUse" x1="426.6616" y1="400.8569" x2="325.3513" y2="320.8218">
		<stop  offset="0" style="stop-color:#FFFFFF"/>
		<stop  offset="1" style="stop-color:#FFFFFF"/>
	</linearGradient>
	<path class="st56" d="M417.9,409.2c0,1.1-0.1,2.3-0.4,3.3l-86.6-86.3l-0.8-5.7c-0.6-4.4,1.4-8.6,4.8-10.9l82.7,82.4L417.9,409.2z"
		/>
	<defs>
		<filter id="Adobe_OpacityMaskFilter_10_" filterUnits="userSpaceOnUse" x="339.5" y="307.4" width="78" height="78.1">
			<feFlood  style="flood-color:white;flood-opacity:1" result="back"/>
			<feBlend  in="SourceGraphic" in2="back" mode="normal"/>
		</filter>
	</defs>
	<mask maskUnits="userSpaceOnUse" x="339.5" y="307.4" width="78" height="78.1" id="SVGID_16_">
		<g class="st57">
			<defs>
				<filter id="Adobe_OpacityMaskFilter_11_" filterUnits="userSpaceOnUse" x="339.5" y="307.4" width="78" height="78.1">
					<feFlood  style="flood-color:white;flood-opacity:1" result="back"/>
					<feBlend  in="SourceGraphic" in2="back" mode="normal"/>
				</filter>
			</defs>
			<mask maskUnits="userSpaceOnUse" x="339.5" y="307.4" width="78" height="78.1" id="SVGID_16_">
			</mask>
			<linearGradient id="SVGID_17_" gradientUnits="userSpaceOnUse" x1="423.3473" y1="378.115" x2="337.5103" y2="310.3039">
				<stop  offset="0" style="stop-color:#000000"/>
				<stop  offset="1" style="stop-color:#FFFFFF"/>
			</linearGradient>
			<path class="st59" d="M417.5,385.5l-78-77.7c0.4-0.1,0.9-0.1,1.4-0.1l8-0.3l68.4,68.2L417.5,385.5z"/>
		</g>
	</mask>
	<linearGradient id="SVGID_18_" gradientUnits="userSpaceOnUse" x1="423.3473" y1="378.115" x2="337.5103" y2="310.3039">
		<stop  offset="0" style="stop-color:#FFFFFF"/>
		<stop  offset="1" style="stop-color:#FFFFFF"/>
	</linearGradient>
	<path class="st60" d="M417.5,385.5l-78-77.7c0.4-0.1,0.9-0.1,1.4-0.1l8-0.3l68.4,68.2L417.5,385.5z"/>
</g>
</svg>
