<svg xmlns="http://www.w3.org/2000/svg" xmlns:xlink="http://www.w3.org/1999/xlink" version="1.1" id="Capa_1" x="0px" y="0px" viewBox="0 0 512 512" style="enable-background:new 0 0 512 512;" xml:space="preserve" width="512" height="512">
<g>
	<g>
		<g>
			<g>
				<path style="fill-rule:evenodd;clip-rule:evenodd;fill:#14334F;" d="M476.705,212.855c0.738-4.407,1.227-9.063,1.801-13.634      c4.383-0.506,8.134-0.241,10.804-2.059c2.004-1.364,3.042-4.827,3.863-7.461c2.717-8.735,3.908-18.059,5.399-28.553      c1.745-12.277,4.135-30.044-3.089-38.328c-6.981-8.017-21.54-10.1-34.982-12.606c-9.973-1.86-19.901-3.766-29.071-5.659      c-18.947-3.912-36.689-7.255-58.65-11.062c-29.413-5.099-59.625-9.481-92.349-12.09c-11.662-0.93-25.653-1.011-32.155,3.602      c-3.796,2.693-6.452,9.081-8.49,14.405c-4.518,11.808-6.878,22.688-9.001,36.786c-1.011,6.699-3.863,18.882-0.772,20.836      c3.143,1.99,8.289,1.828,12.346,2.829c-0.597,3.949-1.67,7.421-2.317,11.319c-5.495-0.561-17.112-1.702-20.763-7.568      c-3.082-4.949-1.522-14.415-0.583-22.014c0.955-7.746,2.44-15.062,3.857-22.124c1.643-8.197,2.724-14.838,4.37-21.864      c1.614-6.867,3.404-16.946,7.208-21.096c4.397-4.798,14.883-6.432,22.891-6.944c11.171-0.715,22.974,0.551,34.472,1.287      c22.161,1.418,43.828,3.413,64.568,6.689c10.07,1.589,19.973,3.618,30.095,5.4c31.281,5.51,60.654,9.492,88.491,18.264      c9.021,2.843,19.248,5.528,25.466,10.033c11.466,8.305,13.546,28.485,10.806,47.588c-1.351,9.436-2.251,17.823-4.117,26.239      c-2.319,10.447-5.358,23.625-14.147,27.27C488.376,214.115,482.556,213.809,476.705,212.855z"/>
			</g>
			<g>
				<path style="fill-rule:evenodd;clip-rule:evenodd;fill:#1A4E72;" d="M244.161,152.403c-1.792,9.27-3.998,18.125-6.173,27.01      c-10.365-1.691-6.495-9.073-5.146-16.464c0.682-3.743,1.249-7.33,2.06-9.003C236.511,150.613,240.996,151.465,244.161,152.403z"/>
			</g>
			<g>
				<path style="fill-rule:evenodd;clip-rule:evenodd;fill:#1A4E72;" d="M480.244,192.101c-1.756,9.275-2.978,18.321-4.235,27.381      c10.254,2.255,9.386-6.033,10.86-13.401c0.748-3.731,1.545-7.274,1.412-9.127C488.016,193.263,483.531,192.397,480.244,192.101z      "/>
			</g>
		</g>
		<g>
			<g>
				<path style="fill-rule:evenodd;clip-rule:evenodd;fill:#E24E6A;" d="M258.49,137.225c9.464-0.724,23.127,0.268,32.157,1.287      c29.746,3.352,58.191,8.992,85.404,14.662c18.503,3.858,37.2,7.613,55.048,11.833c8.366,1.978,18.305,3.799,27.267,6.175      c9.642,2.556,19.019,6.581,21.61,14.92c2.091,6.732,0.13,16.016-0.772,22.379c-3.15,22.199-6.738,41.036-10.029,63.54      c-2.119,14.457-3.904,28.517-6.175,42.959c-1.974,12.527-4.487,30.161-10.288,38.843c-1.857,2.776-4.547,5.384-7.717,6.432      c-7.873,2.593-20.901,0.332-30.358-0.775c-10.527-1.227-20.257-2.363-29.582-3.6c-20.259-2.694-35.428-7.428-54.793-11.575      c-8.787-1.882-18.098-3.771-27.522-5.662c-9.206-1.847-18.778-2.97-28.298-4.886c-8.568-1.724-18.208-3.53-27.267-5.915      c-14.865-3.918-28.891-7.632-30.352-24.182c-0.662-7.462,0.651-15.142,1.542-22.639c1.697-14.31,3.607-28.971,6.175-41.929      c5.189-26.199,10.799-52.927,15.948-80.26c1.303-6.936,2.902-13.786,6.429-17.491      C249.69,138.428,253.954,137.573,258.49,137.225z"/>
			</g>
			<g>
				<path style="fill-rule:evenodd;clip-rule:evenodd;fill:#FFFFFF;" d="M362.292,234.478c3.53,1.131,7.684,2.043,12.031,3.327      c3.287,0.97,7.729,2.099,8.404,5.166c0.666,3.037-0.626,8.613-1.454,10.783c-0.909,2.368-1.623,7.05-4.44,7.703      c-2.978,0.692-7.344-1.14-10.223-1.786c-2.927-0.653-5.729-1.247-8.748-1.801c-1.718,7.542-2.087,18.773-8.489,21.866      c-5.351,2.587-16.572,1.203-18.267-3.6c-1.288-3.67,0.297-8.022,1.036-11.321c0.838-3.762,1.542-7.096,2.31-10.546      c-3.442-0.833-7.335-1.396-11.315-2.318c-3.483-0.8-7.99-1.477-9.262-4.114c-1.74-3.603,0.234-8.135,1.285-11.318      c0.954-2.895,2.141-7.171,5.146-8.232c3.066-1.08,7.123,0.222,10.029,0.771c3.174,0.602,5.988,1.431,9.005,2.059      c1.463-3.957,2.074-16.711,6.947-20.837c4.318-3.657,15.75-3.083,18.001,1.543C367.274,217.931,363.491,229.375,362.292,234.478      z"/>
			</g>
		</g>
		<g>
			<g>
				<g>
					<path style="fill-rule:evenodd;clip-rule:evenodd;fill:#1A4E72;" d="M474.393,149.059       c-33.859-6.542-68.157-13.219-102.64-19.808c-34.609-6.613-69.884-10.575-104.443-17.75       c3.087-7.287,3.899-13.689,13.634-14.406c4.41-0.324,9.028,0.26,13.634,0.772c12.697,1.408,25.331,3.869,37.047,5.915       c16.4,2.868,31.898,5.404,49.129,8.232c15.867,2.605,32.405,5.712,48.875,8.489c7.634,1.288,15.462,3.085,23.409,5.144       c7.472,1.938,15.968,4.849,18.78,9.776C473.783,138.869,473.984,144.938,474.393,149.059z"/>
				</g>
				<g>
					<path style="fill-rule:evenodd;clip-rule:evenodd;fill:#14334F;" d="M263.967,109.958c8.823-0.811,20.919,1.155,29.841,2.315       c9.579,1.244,18.841,2.972,27.783,4.372c18.546,2.902,36.023,6.136,55.048,9.003c22.454,3.387,44.688,7.679,67.399,12.863       c8.399,1.918,17.204,4.284,24.696,7.202c10.185,3.97,16.653,7.453,18.519,20.324c0.885,6.102,0.606,16.549-3.345,19.291       c-3.206,2.23-10.608,1.29-15.43,0.26c-4.507-0.964-10.189-2.446-14.662-3.347c-10.669-2.144-21.133-3.288-30.87-5.144       c-21.182-4.038-40.271-8.146-60.453-11.834c-19.908-3.635-39.627-7.833-61.737-10.546c-15.671-1.924-32.517-3.387-48.621-5.659       c-5.074-0.718-11.815-1.628-13.118-5.66c-0.876-2.716,0.209-6.542,1.027-9.776c2.026-8,5.896-18.456,12.091-21.35       C255.183,110.849,259.987,110.325,263.967,109.958z"/>
				</g>
			</g>
			<g>
				<g>
					<g>
						<path style="fill-rule:evenodd;clip-rule:evenodd;fill:#FFFFFF;" d="M443.798,148.79c-0.81-8.962,19.447-0.142,17.125,6.149        c-2.733,7.38-14.653-0.945-16.979-5.305C443.794,149.358,443.832,149.1,443.798,148.79z"/>
					</g>
					<g>
						<path style="fill-rule:evenodd;clip-rule:evenodd;fill:#FFFFFF;" d="M466.446,162.83c0.344-7.284,17.819-0.809,13.899,5.628        C477.372,173.347,466.199,167.861,466.446,162.83z"/>
					</g>
				</g>
				<g>
					<g>
						<path style="fill-rule:evenodd;clip-rule:evenodd;fill:#FFFFFF;" d="M445.667,326.289c-2.569,3.299-3.359,10.307-3.717,17.239        c-0.155,2.966-0.322,7.769,2.314,8.21c3.167,0.53,4.23-4.901,4.602-6.844c1.175-6.149,1.355-13.814,0.257-17.923        C448.486,326.215,446.757,325.934,445.667,326.289z"/>
					</g>
					<g>
						<path style="fill-rule:evenodd;clip-rule:evenodd;fill:#FFFFFF;" d="M435.268,342.773c-6.317-2.351-9.057,12.139-3.48,12.564        c2.422,0.178,6.367-6.334,5.833-9.94C437.425,344.106,436.369,343.183,435.268,342.773z"/>
					</g>
				</g>
				<g>
					<g>
						<path style="fill-rule:evenodd;clip-rule:evenodd;fill:#FFFFFF;" d="M251.565,164.137c-3.1,2.806-5.09,9.571-6.641,16.335        c-0.664,2.896-1.655,7.598,0.862,8.489c3.03,1.068,5.016-4.097,5.714-5.946c2.22-5.853,3.721-13.373,3.35-17.609        C254.768,163.62,253.313,162.728,251.565,164.137z"/>
					</g>
				</g>
				<g>
					<g>
						<path style="fill-rule:evenodd;clip-rule:evenodd;fill:#FFFFFF;" d="M470.785,194.81c2.956,3.998,0.405,24.072-6.369,22.777        c-5.52-1.057-2.861-18.722,1.628-22.506C467.203,194.1,468.223,193.862,470.785,194.81z"/>
					</g>
					<g>
						<path style="fill-rule:evenodd;clip-rule:evenodd;fill:#FFFFFF;" d="M451.156,214.426c6.632-0.825,4.951,9.159,0.977,9.579        C446.791,224.571,445.296,215.147,451.156,214.426z"/>
					</g>
					<g>
						<path style="fill-rule:evenodd;clip-rule:evenodd;fill:#FFFFFF;" d="M464.181,226.409c6.324,0.466,3.652,15.643-2.046,14.464        c-2.397-0.496-2.724-2.248-2.931-5.372C458.909,230.887,459.76,226.082,464.181,226.409z"/>
					</g>
				</g>
			</g>
		</g>
	</g>
	<g>
		<g>
			<g>
				<path style="fill-rule:evenodd;clip-rule:evenodd;fill:#E24E6A;" d="M177.791,334.013c14.996-2.108,21.295,10.193,23.411,22.64      c0.781,4.61,0.752,9.487,2.573,14.146c2.517,6.449,5.937,9.848,9.516,15.69c1.484,2.422,3.253,5.651,3.343,9.259      c0.099,3.857-1.547,7.184-4.372,7.974c-3.622,1.018-8.812-1.855-11.574-4.115c-5.534-4.525-8.967-12.657-13.895-16.972      c-7.765-6.81-19.674-10.102-24.435-19.295c-2.762-5.329-2.141-12.954,0.511-18.522      C165.333,339.663,171.125,334.95,177.791,334.013z"/>
			</g>
			<g>
				<path style="fill-rule:evenodd;clip-rule:evenodd;fill:#FF8C9C;" d="M184.998,176.839c23.809-11.106,55.16,2.073,49.388,30.098      c19.145-3.187,37.267,11.676,38.846,29.583c0.353,4.052-0.099,7.454-1.031,10.804c8.118,0.896,13.481,5.479,18.006,10.546      c12.015,13.464,2.438,36.011-9.003,44.504c6.258,6.192,12.506,12.49,11.576,25.467c-1.196,16.674-14.874,26.201-28.812,29.839      c-3.005,8.963-8.946,14.119-17.749,17.752c-18.148,7.488-35.559-0.196-46.304-10.553c-7.285-7.017-12.769-16.503-15.433-26.237      c-7.051,5.808-15.48,12.74-25.982,17.495c-10.59,4.789-23.021,7.981-36.783,6.686c-12.405-1.165-23.965-4.938-32.412-11.574      c-9.327-7.321-15.928-18.432-15.18-34.985c-8.442,4.214-18.388,8.723-31.382,8.745c-15.806,0.029-29.352-6.918-36.529-16.978      c-3.8-5.329-6.585-12.612-6.173-20.58c0.39-7.547,3.066-14.171,6.689-20.064c-2.742-12.95,1.79-24.603,10.545-28.553      c-3.453-17.196,7.204-34.754,26.497-32.411c3.199-7.045,6.916-13.358,13.634-17.751c6.689-4.374,16.443-7.092,25.466-3.858      c0.824-1.516,1.36-2.453,2.06-3.603c4.912-8.058,15.412-16.153,29.582-14.918c5.405,0.471,8.769,2.899,13.377,4.63      c7.639-4.385,13.771-10.447,24.435-11.319C169.552,158.198,177.289,167.845,184.998,176.839z"/>
			</g>
			<g>
				<g>
					<path style="fill:#E24E6A;" d="M133.804,190.731c-12.467,4.62-23.384,7.632-31.382,16.206       c-2.495,2.678-5.306,5.932-6.945,9.004c-0.734,1.379-0.898,3.246-1.801,4.372c-2.508-0.7-12.6-2.639-11.833,2.831       c0.417,2.971,4.196,1.935,7.204,2.314c6.216,0.786,12.76,6.096,16.466,10.289c1.2,1.362,2.699,4.04,5.399,3.602       c2.294-0.373,2.823-2.967,1.803-5.66c-0.842-2.212-3.039-3.839-3.859-4.631c-2.652-2.554-6.056-4.854-10.036-7.202       c7.555-17.812,29.644-19.39,47.076-29.067c9.241-5.132,17.222-11.731,22.121-21.609c0.549-1.108,2.204-5.007,2.384-7.982       c-1.504-0.855-3.114-1.588-4.856-2.177c-1.882,2.546-3.215,7.795-4.217,9.644C155.695,181.075,145.783,186.293,133.804,190.731       z"/>
				</g>
				<g>
					<path style="fill:#E24E6A;" d="M186.886,196.903c-14.773-4.449-30.57,0.145-40.386,6.947c-2.287,1.585-7.082,5.211-4.892,7.461       c2.915,1.301,5.432-1.036,7.206-2.059c2.323-1.341,4.491-2.584,6.945-3.6c9.802-4.06,24.298-5.314,35.757-1.802       c5.615,1.721,10.392,4.561,16.207,4.887c4.077,0.231,6.364-1.224,9.001-1.8c-0.297,2.39,0.45,3.984,2.057,4.117       c3.755,0.311,2.584-5.474,3.345-9.774c0.288-1.643,1.456-3.727,2.312-5.661c0.937-2.1,1.781-4.553-0.768-5.145       c-1.9-0.439-2.722,1.433-4.115,3.601c-1.968,3.054-4.365,7.366-7.206,8.489c-4.669,1.847-10.315-0.013-13.631-1.801       c-7.146-3.85-14.903-13.277-13.645-23.957c-0.027,0.012-0.054,0.024-0.077,0.033c-1.2-1.398-2.4-2.812-3.638-4.2       c-0.653,2.33-0.914,5.032-0.905,6.773C180.509,186.992,184.66,193.365,186.886,196.903z"/>
				</g>
				<g>
					<path style="fill:#E24E6A;" d="M62.045,210.839c-4.642,2.677-9.588,5.08-13.888,7.975c-10.176,6.84-22.31,20.187-14.919,36.786       c-8.868,5.41-16.853,18.016-15.95,30.609c0.673,9.448,6.038,16.467,12.864,20.066c-0.896,1.692-0.795,4.863,1.286,5.144       c2.789,0.38,3.647-4.102,4.631-6.173c2.692-5.684,5.09-8.8,8.746-12.861c1.049-1.168,5.212-4.276,3.856-6.69       c-1.67-2.981-5.927,0.618-7.717,2.317c-3.809,3.618-6.468,7.332-8.489,12.09c-4.728-3.881-9.1-8.22-9.775-15.436       c-0.99-10.654,5.615-21.003,13.893-23.665c5.54,5.527,12.042,9.05,20.835,9.004c12.882-0.071,21.383-7.571,25.725-16.207       c1.042-2.071,4.385-9.28,0.254-9.775c-2.956-0.355-3.559,3.59-4.885,5.402c-1.963,2.683-6.887,6.702-9.521,7.974       c-6.198,2.998-15.345,3.334-21.603,0.258c-4.532-2.225-9.199-6.771-8.492-13.119c0.93-8.329,8.258-15.001,14.406-19.038       c7.049-4.62,14.262-8.278,20.066-13.631c3.937-3.634,6.876-8.248,9.259-12.861c3.026-5.864,5.84-14.081,5.655-22.282       c-1.308,1.457-2.427,2.974-3.35,4.488c-0.7,1.151-1.236,2.087-2.06,3.603c-0.045-0.017-0.092-0.029-0.14-0.046       c-1.697,6.467-4.102,12.358-8.075,17.066C71.543,205.509,66.588,208.221,62.045,210.839z"/>
				</g>
				<g>
					<path style="fill:#E24E6A;" d="M255.446,249.775c-1.348-0.142-3.026-1.184-4.631-1.801c-8.375-3.22-13.519-8.422-17.49-15.433       c-1.465-2.585-3.08-7.708-5.921-7.462c-2.31,0.2-2.774,2.875-1.54,6.173c0.66,1.764,2.859,4.629,3.6,5.66       c3.971,5.541,9.235,10.682,13.89,13.89c-10.684,0.141-19.401-0.084-27.524-1.543c-7.666-1.374-14.296-4.352-21.608-7.715       c-6.171-2.841-12.618-6.729-18.008-11.064c-2.413-1.943-5.088-4.535-7.715-6.944c-1.805-1.652-6.695-6.482-9.003-5.917       c-4.104,1.006,0.952,7.248,2.055,8.491c5.216,5.858,13.382,10.367,18.78,14.405c-3.575,1.354-6.945,2.338-12.089,2.829       c-4.165,0.398-11.184-0.421-11.576,3.344c-0.374,3.583,4.444,4.182,7.976,4.115c5.324-0.1,12.728-1.865,17.231-4.373       c1.715-0.951,2.72-2.652,4.372-3.087c0.88,1.006,2.776,1.001,3.348,2.315c-1.743,4.534-2.893,7.981-4.631,11.577       c-0.979,2.023-4.464,9.075-6.432,10.031c-1.358,0.66-4.34,0.861-6.689,0.771c-2.467-0.092-5.876-1.072-8.487-2.058       c-0.946-0.357-6.965-3.411-7.717-0.513c-0.554,2.122,3.834,4.131,4.887,4.63c4.318,2.05,9.44,2.513,14.919,1.8       c-5.959,7.288-12.769,14.544-22.123,20.838c-6.056,4.071-13.629,7.951-20.838,11.575c-1.774,0.894-6.466,2.409-5.401,5.401       c1.182,3.331,8.316-0.062,9.518-0.513c3.721-1.394,5.874-2.417,8.746-3.859c-0.511,4.242-0.763,7.851-1.801,12.347       c-0.515,2.217-3.922,9.968-0.774,11.062c2.578,0.894,3.971-2.357,4.892-4.115c3.149-6.038,4.809-14.681,3.857-23.153       c19.136-13.271,34.206-30.618,43.474-53.762c12.533,5.412,28.379,9.938,47.848,10.547c9.023,0.285,17.967-0.962,26.493-2.573       c3.877-0.729,7.454-1.495,11.578-3.085c0.549-0.215,1.481-0.546,2.519-0.971c-3.125-2.197-6.758-3.816-11.234-4.31       c0-0.003,0.002-0.006,0.002-0.011c-3.312,0.663-6.628,1.183-10.068,1.692C260.008,249.317,257.509,249.991,255.446,249.775z"/>
				</g>
				<g>
					<path style="fill:#E24E6A;" d="M125.668,278.984c2.495,0,11.959,1.689,12.605-2.057c0.567-3.292-4.077-4.487-6.945-4.89       c-12.418-1.736-22.038,2.845-30.095,5.662c0-0.26,0.205-0.31,0.255-0.517c6.094-5.229,12.184-10.787,20.322-15.947       c5.198-3.298,11.508-6.093,17.497-9.263c1.648-0.874,4.836-2.286,4.372-4.63c-0.702-3.513-9.498-0.586-11.322,0       c-4.113,1.325-7.688,2.877-10.547,4.372c-17.852,9.347-31.608,23.921-41.414,40.646c-0.871,1.486-1.49,3.348-2.83,4.631       c-1.067-7.491-5.432-13.284-11.835-15.691c-2.404-0.906-5.961-1.273-5.916,1.8c0.029,1.997,3.366,3.162,4.89,4.631       c4.73,4.547,8.487,12.366,6.427,22.122c-1.63,2.898-3.699,6.217-4.734,10.019c2.724-1.151,5.295-2.391,7.729-3.607       c-0.004,0.092,0,0.182-0.004,0.275c3.276-6.672,6.479-13.298,11.162-19.292C93.578,286.625,107.212,278.984,125.668,278.984z"/>
				</g>
				<g>
					<path style="fill:#E24E6A;" d="M213.485,279.85c1.65-1.635,5.702-5.259,5.207-7.732c-0.272-1.362-2.485-2.122-3.96-1.706       c-3.879,1.085-7.654,4.32-10.581,7.168c-9.023,8.778-16.412,21.872-20.946,34.533c-0.831-2.037-1.643-4.052-3.019-5.746       c-2.465-3.042-7.771-7.223-13.735-7.13c-1.094,0.017-4.05,0.684-4.133,2.413c-0.099,2.077,3.557,2.378,5.844,3.456       c3.661,1.73,7.483,5.833,9.147,8.977c1.191,2.248,2.911,6.476,2.846,9.867c-0.047,2.708-1.191,9.304-1.189,13.843       c0,1.433-0.205,3.51-0.214,5.503c2.006-1.588,3.913-3.157,5.729-4.653c0,0,0,0.002,0.002,0.002       c0.558-7.008,1.693-14.485,3.305-20.879C192.294,299.879,202.87,290.372,213.485,279.85z"/>
				</g>
				<g>
					<path style="fill:#E24E6A;" d="M251.545,343.377c-1.948-2.12-4.395-3.857-6.173-6.175c-1.968-2.56-3.512-6.002-5.146-9.003       c-4.838-8.885-9.197-21.455-8.233-34.727c0.491-6.727,3.01-13.253,5.662-18.264c0.887-1.674,2.726-4.435,2.312-5.66       c-0.371-1.113-2.344-1.545-3.6-1.029c-6.923,2.849-10.288,15.124-10.802,24.439c-0.761,13.725,4.201,27.758,9.001,35.499       c-5.97-3.641-14.847-8.047-24.694-6.946c-1.97,0.221-5.459,1.267-5.403,3.345c0.068,2.445,5.536,3.35,8.494,4.115       c3.377,0.877,7.17,1.647,10.029,2.571c16.101,5.215,26.804,16.128,36.014,27.268c0.9,1.093,1.742,2.587,2.857,3.707       c0.811-1.48,1.515-3.084,2.105-4.837c0.025-0.008,0.045-0.012,0.07-0.019c-2.044-3.017-4.282-5.59-6.576-8.11       C255.557,347.457,253.472,345.473,251.545,343.377z"/>
				</g>
				<g>
					<path style="fill:#E24E6A;" d="M281.219,302.387c-5.79,3.672-12.537,6.474-20.748,7.06c-1.283,0.092-2.884,0.093-4.115,0       c-2.828-0.219-11.128-3.581-12.087-0.257c-1.477,5.089,9.692,6.479,13.116,6.689c11.689,0.706,20.565-3.927,27.573-9.658       C283.749,304.905,282.484,303.645,281.219,302.387z"/>
				</g>
				<g>
					<path style="fill:#E24E6A;" d="M143.32,342.246c-5.225,0.442-12.182,0.627-16.718,0c-9.863-1.363-19.233-6.086-24.694-10.805       c-3.327-2.873-4.766-4.825-6.945-9.774c1.276-2.541,7.645-3.017,6.689-6.947c-0.284-1.154-1.941-1.683-3.345-1.542       c-2.312,0.23-5.493,3.217-7.456,5.144c-2.143,2.097-4.793,4.454-4.376,6.947c1.819,0.905,3.69-1.587,4.887-1.288       c0.662,1.873,1.056,3.42,1.542,4.372c6.186,12.083,23.913,21.497,41.676,22.379c7.258,0.365,11.288-0.36,16.718-2.312       c2.83-1.02,7.477-2.051,6.691-5.403C157.197,339.665,146.96,341.937,143.32,342.246z"/>
				</g>
			</g>
		</g>
		<g>
			<g>
				<g>
					<path style="fill-rule:evenodd;clip-rule:evenodd;fill:#FFFFFF;" d="M13.066,280.507c-5.248,2.41-4.84-12.544,0.189-9.894       C15.88,271.994,14.435,278.057,13.066,280.507z"/>
				</g>
				<g>
					<path style="fill-rule:evenodd;clip-rule:evenodd;fill:#FFFFFF;" d="M7.319,288.774c0.486-1.117,2.105-3.143,4.275-1.986       c2.834,1.508,3.093,7.951,3.681,10.485c0.716,3.081,3.451,8.565,0.833,10.981c-3.741,3.448-6.495-5.337-7.314-8.396       c-0.439-1.626-0.707-3.262-1.009-4.659C7.271,292.813,6.371,290.927,7.319,288.774z"/>
				</g>
			</g>
			<g>
				<g>
					<path style="fill-rule:evenodd;clip-rule:evenodd;fill:#FFFFFF;" d="M214.645,193.053c-4.174,0.306-10.441-2.931-16.4-6.479       c-2.562-1.513-6.653-4.039-5.55-6.475c1.319-2.928,6.423-0.802,8.242-0.033c5.77,2.434,12.249,6.541,15.054,9.736       C216.642,191.717,216.05,192.843,214.645,193.053z"/>
				</g>
				<g>
					<path style="fill-rule:evenodd;clip-rule:evenodd;fill:#FFFFFF;" d="M182.904,189.976c-1.556,6.56-15.128,0.797-12.384-4.079       c1.193-2.115,8.798-1.781,11.506,0.665C182.996,187.435,183.17,188.835,182.904,189.976z"/>
				</g>
				<g>
					<path style="fill-rule:evenodd;clip-rule:evenodd;fill:#FFFFFF;" d="M170.367,177.261c-0.308,2.375-3.654,3.288-7.103,2.923       c-2.769-0.296-7.94-2.135-6.61-5.048c0.581-1.298,3.17-2.388,6.051-2.151C166.071,173.25,170.758,174.204,170.367,177.261z"/>
				</g>
			</g>
			<g>
				<g>
					<path style="fill-rule:evenodd;clip-rule:evenodd;fill:#FFFFFF;" d="M88.454,338.419c-2.249-8.711,19.167-3.277,17.891,3.307       c-1.504,7.726-14.611,1.431-17.609-2.497C88.542,338.983,88.531,338.719,88.454,338.419z"/>
				</g>
				<g>
					<path style="fill-rule:evenodd;clip-rule:evenodd;fill:#FFFFFF;" d="M113.07,348.624c-0.835-7.247,17.456-3.675,14.626,3.309       C125.546,357.238,113.641,353.627,113.07,348.624z"/>
				</g>
			</g>
		</g>
	</g>
	<g>
		<g>
			<path style="fill-rule:evenodd;clip-rule:evenodd;fill:#14334F;" d="M327.712,206.852c3.579-0.275,10.349-0.392,14.406,1.064     c12.082,4.337,12.299,13.008,15.487,27.032c5.664,24.94,9.35,42.03,15.95,68.349c4.178,16.668,6.851,28.558,11.317,44.945     c1.846,6.762,4.514,14.378,6.173,22.071c2.105,9.764,3.701,21.945-1.029,28.722c-5.327,7.641-20.304,11.279-30.095,14.626     c-22.785,7.798-45.53,13.003-70.228,18.886c-5.768,1.371-11.965,2.729-18.005,4.253c-8.337,2.096-17.911,5.295-25.723,1.594     c-9.014-4.266-13.276-15.52-16.72-26.063c-2.409-7.364-3.793-15.464-5.662-23.132c-3.456-14.192-7.846-32.175-11.319-46.542     c-6.22-25.746-11.414-44.363-18.264-68.348c-2.895-10.135-6.083-21.417-3.084-30.583c3.458-10.589,16.68-13.69,28.04-16.489     C231.151,224.23,320.956,207.368,327.712,206.852z"/>
		</g>
		<g>
			<g>
				<g>
					<path style="fill-rule:evenodd;clip-rule:evenodd;fill:#FFFFFF;" d="M324.839,218.17c1.749-0.061,7.688-0.085,10.187,1.231       c4.86,2.553,6.722,11.713,8.15,18.13c3.107,13.936,6.245,28.176,9.246,42.678c1.22,5.907,4.563,17.165,0.957,22.292       c-2.245,3.176-10.061,4.119-15.489,5.023c-18.055,3.011-33.179,7.258-50.007,10.899c-10.939,2.371-21.416,5.185-32.63,8.22       c-4.879,1.319-10.421,2.967-16.196,4.238c-5.446,1.195-13.945,1.894-18.199-1.104c-4.392-3.1-5.664-12.485-7.364-18.844       c-3.796-14.214-6.344-27.752-9.246-42.679c-0.624-3.228-1.414-6.751-1.988-10.841c-0.441-3.158-1.148-8.556,0.313-11.982       c1.474-3.473,6.754-5.494,11.835-7.195c14.473-4.845,29.971-6.542,46.194-9.581c10.727-2.008,21.461-3.388,31.99-5.247       c5.234-0.922,10.453-2.052,15.644-3.016C313.601,219.399,318.943,218.378,324.839,218.17z"/>
				</g>
				<g>
					<g>
						<path style="fill-rule:evenodd;clip-rule:evenodd;fill:#14334F;" d="M294.281,288.683c4.618-1.968,7.695,1.427,9.446,5.225        c0.646,1.408,1.053,2.973,2.04,4.308c1.362,1.844,2.749,2.639,4.399,4.2c0.68,0.648,1.529,1.529,1.868,2.675        c0.362,1.227,0.124,2.433-0.711,2.932c-1.072,0.637-2.978,0.163-4.059-0.322c-2.161-0.97-3.962-3.277-5.91-4.236        c-3.071-1.51-7.166-1.534-9.48-4.067c-1.346-1.467-1.806-3.962-1.434-5.971C290.78,291.566,292.23,289.557,294.281,288.683z"/>
					</g>
					<g>
						<path style="fill-rule:evenodd;clip-rule:evenodd;fill:#14334F;" d="M283.038,237.765c6.666-5.608,17.832-4.092,18.402,5.375        c5.851-2.67,12.931,0.524,14.982,6.119c0.464,1.267,0.61,2.394,0.601,3.546c2.674-0.415,4.784,0.591,6.67,1.823        c5.007,3.272,3.881,11.315,0.955,15.017c2.535,1.442,5.079,2.919,5.898,7.152c1.056,5.44-2.499,9.667-6.646,12.033        c-0.194,3.127-1.648,5.286-4.151,7.209c-5.162,3.961-11.398,3.003-15.727,0.617c-2.936-1.62-5.509-4.183-7.202-7.068        c-1.756,2.466-3.854,5.411-6.803,7.837c-2.976,2.445-6.679,4.54-11.198,5.312c-4.066,0.695-8.093,0.484-11.369-0.912        c-3.613-1.538-6.686-4.526-7.873-9.888c-2.341,2.079-5.133,4.376-9.289,5.504c-5.056,1.372-9.989,0.315-13.154-2.286        c-1.675-1.377-3.195-3.468-3.748-6.053c-0.524-2.448-0.239-4.801,0.412-6.997c-1.995-3.908-1.547-8.027,0.912-10.046        c-2.584-5.206-0.689-11.742,5.687-12.658c0.417-2.528,1.065-4.871,2.834-6.854c1.763-1.976,4.649-3.688,7.816-3.431        c0.133-0.555,0.225-0.902,0.347-1.328c0.876-3.003,3.541-6.499,8.181-7.324c1.772-0.316,3.057,0.173,4.68,0.329        c2.071-2.062,3.505-4.529,6.844-5.728C276.494,233.131,279.798,235.548,283.038,237.765z"/>
					</g>
					<g style="opacity:0.3;">
						<g>
							<path style="fill:#FFFFFF;" d="M267.858,246.62c-3.593,2.556-6.823,4.459-8.647,7.894c-0.567,1.07-1.186,2.354-1.445,3.477         c-0.121,0.506-0.009,1.118-0.203,1.554c-0.864-0.007-4.257,0.242-3.541,1.927c0.389,0.914,1.51,0.256,2.503,0.119         c2.058-0.285,4.611,0.852,6.16,1.875c0.5,0.33,1.211,1.059,2.035,0.684c0.702-0.317,0.646-1.191,0.09-1.964         c-0.462-0.637-1.301-0.968-1.632-1.149c-1.069-0.591-2.357-1.031-3.832-1.44c0.88-6.352,7.814-8.763,12.555-13.36         c2.519-2.439,4.503-5.237,5.218-8.823c0.081-0.401,0.277-1.792,0.074-2.759c-0.554-0.144-1.135-0.24-1.74-0.277         c-0.383,0.976-0.355,2.771-0.518,3.449C274.026,241.645,271.309,244.17,267.858,246.62z"/>
						</g>
						<g>
							<path style="fill:#FFFFFF;" d="M285.377,244.022c-5.112-0.148-9.77,2.681-12.328,5.704c-0.594,0.704-1.817,2.278-0.921,2.809         c1.042,0.166,1.65-0.798,2.127-1.279c0.628-0.629,1.216-1.214,1.914-1.75c2.787-2.144,7.317-3.793,11.288-3.659         c1.945,0.069,3.719,0.563,5.608,0.168c1.324-0.279,1.929-0.941,2.724-1.353c0.11,0.791,0.486,1.237,1.016,1.14         c1.229-0.223,0.351-1.972,0.225-3.415c-0.05-0.552,0.144-1.32,0.252-2.01c0.119-0.754,0.178-1.612-0.689-1.581         c-0.646,0.025-0.743,0.692-1.007,1.507c-0.365,1.147-0.763,2.734-1.574,3.337c-1.333,0.994-3.303,0.885-4.518,0.599         c-2.616-0.617-5.914-2.964-6.434-6.489c-0.005,0.005-0.011,0.011-0.023,0.017c-0.5-0.346-1.009-0.693-1.517-1.032         c-0.016,0.802,0.137,1.691,0.29,2.246C282.482,241.398,284.359,243.081,285.377,244.022z"/>
						</g>
						<g>
							<path style="fill:#FFFFFF;" d="M246.626,259.241c-1.254,1.256-2.632,2.453-3.76,3.75c-2.665,3.064-5.396,8.38-1.601,13.055         c-2.373,2.497-3.839,7.221-2.465,11.171c1.027,2.965,3.348,4.75,5.842,5.313c-0.137,0.619,0.164,1.624,0.858,1.536         c0.921-0.12,0.813-1.628,0.95-2.376c0.371-2.049,0.871-3.253,1.691-4.869c0.23-0.464,1.297-1.816,0.655-2.474         c-0.79-0.808-1.844,0.709-2.269,1.408c-0.907,1.488-1.439,2.903-1.677,4.602c-1.844-0.835-3.62-1.848-4.458-4.098         c-1.236-3.324-0.011-7.204,2.409-8.77c2.249,1.292,4.629,1.859,7.443,1.085c4.117-1.134,6.191-4.265,6.835-7.403         c0.153-0.754,0.606-3.348-0.761-3.149c-0.977,0.139-0.826,1.456-1.096,2.15c-0.401,1.027-1.628,2.738-2.357,3.37         c-1.727,1.495-4.629,2.391-6.896,1.947c-1.641-0.322-3.528-1.375-3.85-3.468c-0.414-2.744,1.351-5.511,2.974-7.333         c1.851-2.086,3.852-3.88,5.245-6.092c0.948-1.503,1.493-3.232,1.851-4.914c0.466-2.137,0.662-5.008-0.108-7.616         c-0.295,0.577-0.522,1.159-0.687,1.724c-0.121,0.427-0.214,0.773-0.347,1.328c-0.016,0-0.031,0-0.052-0.001         c0.018,2.215-0.241,4.309-1.11,6.157C249.206,256.717,247.855,258.013,246.626,259.241z"/>
						</g>
						<g>
							<path style="fill:#FFFFFF;" d="M311.872,255.032c-0.444,0.072-1.069-0.117-1.637-0.177c-2.958-0.308-5.05-1.53-6.927-3.43         c-0.691-0.703-1.65-2.203-2.537-1.879c-0.725,0.263-0.639,1.158,0.038,2.108c0.362,0.509,1.312,1.234,1.639,1.499         c1.749,1.433,3.877,2.624,5.644,3.249c-3.409,0.967-6.214,1.646-8.942,1.88c-2.571,0.219-4.95-0.16-7.58-0.608         c-2.22-0.377-4.615-1.066-6.713-1.988c-0.943-0.414-2.022-1.013-3.068-1.559c-0.72-0.371-2.704-1.496-3.393-1.117         c-1.227,0.675,0.93,2.239,1.389,2.542c2.175,1.424,5.178,2.162,7.253,2.991c-1.029,0.741-2.024,1.346-3.624,1.945         c-1.299,0.487-3.616,0.831-3.417,2.069c0.189,1.18,1.781,0.956,2.906,0.629c1.693-0.49,3.913-1.694,5.14-2.885         c0.462-0.453,0.639-1.083,1.13-1.363c0.372,0.247,0.977,0.082,1.272,0.454c-0.167,1.599-0.239,2.802-0.486,4.102         c-0.137,0.732-0.644,3.29-1.195,3.765c-0.371,0.329-1.31,0.649-2.071,0.822c-0.797,0.185-1.972,0.164-2.891,0.074         c-0.331-0.033-2.526-0.491-2.517,0.501c0.009,0.726,1.585,0.99,1.963,1.059c1.56,0.286,3.24-0.008,4.93-0.708         c-1.276,2.847-2.832,5.753-5.284,8.574c-1.587,1.825-3.676,3.719-5.669,5.5c-0.495,0.439-1.862,1.328-1.265,2.195         c0.669,0.962,2.654-0.737,3.005-0.985c1.067-0.767,1.666-1.28,2.465-1.989c0.196,1.401,0.43,2.578,0.484,4.106         c0.029,0.754-0.39,3.528,0.709,3.605c0.898,0.065,1.069-1.095,1.207-1.738c0.489-2.202,0.277-5.113-0.756-7.74         c4.978-5.896,8.305-12.747,9.28-20.953c4.471,0.652,9.935,0.733,16.22-0.747c2.909-0.689,5.666-1.859,8.255-3.108         c1.177-0.567,2.256-1.121,3.438-1.984c0.158-0.118,0.428-0.304,0.723-0.528c-1.191-0.436-2.495-0.64-3.967-0.412         c0,0,0-0.002,0-0.005c-1.002,0.499-2.017,0.951-3.078,1.409C313.29,254.494,312.55,254.923,311.872,255.032z"/>
						</g>
						<g>
							<path style="fill:#FFFFFF;" d="M272.86,275.565c0.799-0.215,3.974-0.491,3.854-1.745c-0.103-1.103-1.688-1.085-2.643-0.966         c-4.122,0.515-6.803,2.809-9.14,4.405c-0.027-0.082,0.034-0.115,0.034-0.186c1.499-2.198,2.972-4.502,5.129-6.855         c1.382-1.504,3.161-2.942,4.8-4.472c0.453-0.422,1.353-1.148,1.002-1.859c-0.522-1.064-3.089,0.63-3.625,0.976         c-1.2,0.778-2.208,1.583-2.996,2.309c-4.903,4.527-8.051,10.377-9.75,16.576c-0.151,0.552-0.187,1.2-0.509,1.726         c-0.986-2.306-2.882-3.783-5.137-4.002c-0.847-0.082-2.019,0.106-1.738,1.085c0.184,0.637,1.346,0.724,1.965,1.062         c1.905,1.047,3.78,3.226,3.964,6.525c-0.272,1.069-0.651,2.309-0.655,3.613c0.772-0.604,1.49-1.221,2.163-1.82         c0.007,0.03,0.014,0.059,0.023,0.09c0.473-2.419,0.927-4.817,1.909-7.137C263.249,280.775,266.955,277.155,272.86,275.565z"/>
						</g>
						<g>
							<path style="fill:#FFFFFF;" d="M301.037,268.273c0.387-0.664,1.371-2.174,1.002-2.922c-0.207-0.412-0.982-0.464-1.416-0.204         c-1.148,0.68-2.078,2.041-2.769,3.203c-2.13,3.59-3.368,8.415-3.726,12.859c-0.439-0.582-0.876-1.156-1.461-1.581         c-1.051-0.761-3.111-1.642-5.011-1.097c-0.347,0.101-1.231,0.568-1.112,1.128c0.144,0.674,1.339,0.455,2.17,0.604         c1.319,0.237,2.895,1.219,3.699,2.084c0.57,0.616,1.488,1.821,1.761,2.911c0.218,0.872,0.419,3.08,0.81,4.533         c0.124,0.459,0.239,1.142,0.405,1.781c0.506-0.682,0.984-1.347,1.432-1.983v0.001c-0.423-2.292-0.705-4.781-0.741-6.966         C295.98,276.509,298.547,272.556,301.037,268.273z"/>
						</g>
						<g>
							<path style="fill:#FFFFFF;" d="M318.691,285.323c-0.806-0.512-1.738-0.854-2.506-1.442c-0.851-0.651-1.643-1.622-2.427-2.44         c-2.31-2.425-4.793-6.073-5.624-10.403c-0.423-2.194-0.182-4.5,0.236-6.331c0.137-0.613,0.489-1.655,0.255-2.012         c-0.214-0.325-0.887-0.294-1.243-0.018c-1.97,1.504-1.99,5.724-1.351,8.75c0.939,4.458,3.735,8.522,5.941,10.585         c-2.224-0.651-5.444-1.297-8.505-0.095c-0.608,0.239-1.637,0.875-1.436,1.536c0.23,0.774,2.06,0.595,3.071,0.584         c1.159-0.011,2.436-0.092,3.433-0.041c5.601,0.28,9.964,2.85,13.875,5.623c0.38,0.268,0.781,0.675,1.231,0.939         c0.133-0.544,0.221-1.119,0.259-1.729c0.002-0.006,0.011-0.009,0.02-0.013c-0.916-0.789-1.855-1.419-2.803-2.028         C320.326,286.283,319.488,285.827,318.691,285.323z"/>
						</g>
						<g>
							<path style="fill:#FFFFFF;" d="M324.653,269.648c-1.533,1.675-3.453,3.152-6.029,4.047c-0.401,0.143-0.916,0.278-1.319,0.355         c-0.921,0.174-3.865-0.187-3.89,0.961c-0.031,1.754,3.661,1.237,4.777,1.01c3.798-0.781,6.238-3.03,7.99-5.465         C325.684,270.238,325.171,269.942,324.653,269.648z"/>
						</g>
						<g>
							<path style="fill:#FFFFFF;" d="M283.959,294.288c-1.632,0.593-3.843,1.249-5.349,1.441c-3.273,0.413-6.677-0.289-8.834-1.33         c-1.313-0.632-1.941-1.134-3.064-2.528c0.189-0.923,2.186-1.625,1.54-2.798c-0.191-0.346-0.763-0.373-1.204-0.208         c-0.716,0.275-1.477,1.504-1.945,2.291c-0.5,0.854-1.144,1.838-0.797,2.599c0.657,0.134,1.045-0.824,1.452-0.832         c0.374,0.542,0.63,1.002,0.873,1.265c3.019,3.334,9.503,4.819,15.264,3.57c2.357-0.51,3.582-1.087,5.151-2.18         c0.815-0.571,2.215-1.3,1.675-2.305C288.178,292.268,285.098,293.875,283.959,294.288z"/>
						</g>
					</g>
				</g>
			</g>
			<g>
				<g>
					<g>
						<path style="fill-rule:evenodd;clip-rule:evenodd;fill:#FFFFFF;" d="M350.659,310.089c1.799-0.146,7.906-0.46,10.547,0.773        c5.119,2.394,7.477,11.73,9.259,18.266c3.872,14.187,7.789,28.692,11.574,43.471c1.544,6.022,5.536,17.441,2.06,22.893        c-2.15,3.381-10.149,4.723-15.691,5.914c-18.438,3.971-33.794,9.073-50.933,13.638c-11.146,2.963-21.792,6.367-33.186,10.032        c-4.955,1.594-10.581,3.557-16.459,5.144c-5.552,1.492-14.259,2.623-18.784-0.257c-4.671-2.978-6.43-12.576-8.489-19.037        c-4.593-14.446-7.864-28.247-11.574-43.468c-0.799-3.297-1.785-6.879-2.569-11.065c-0.61-3.229-1.596-8.748-0.259-12.346        c1.353-3.645,6.686-5.981,11.833-7.975c14.66-5.687,30.529-8.179,47.074-12.09c10.939-2.586,21.923-4.524,32.668-6.945        c5.342-1.202,10.655-2.619,15.952-3.859C339.155,311.896,344.603,310.586,350.659,310.089z"/>
					</g>
					<g>
						<g>
							<path style="fill-rule:evenodd;clip-rule:evenodd;fill:#14334F;" d="M327.334,383.553c4.656-2.247,7.981,1.096,9.971,4.923         c0.732,1.414,1.229,3.005,2.308,4.334c1.493,1.83,2.958,2.58,4.73,4.111c0.734,0.63,1.643,1.497,2.053,2.661         c0.432,1.243,0.241,2.494-0.592,3.048c-1.074,0.707-3.057,0.311-4.189-0.133c-2.274-0.896-4.237-3.183-6.288-4.077         c-3.235-1.405-7.447-1.234-9.957-3.726c-1.452-1.443-2.044-3.991-1.758-6.074         C323.872,386.689,325.263,384.553,327.334,383.553z"/>
						</g>
						<g>
							<path style="fill-rule:evenodd;clip-rule:evenodd;fill:#14334F;" d="M313.304,331.699c6.585-6.091,18.154-5.072,19.192,4.64         c5.898-3.029,13.339-0.083,15.718,5.574c0.534,1.281,0.741,2.435,0.788,3.621c2.733-0.553,4.953,0.376,6.956,1.556         c5.304,3.121,4.541,11.452,1.707,15.408c2.677,1.359,5.365,2.757,6.411,7.072c1.351,5.55-2.107,10.073-6.258,12.71         c-0.045,3.221-1.436,5.515-3.922,7.611c-5.122,4.325-11.58,3.638-16.155,1.394c-3.1-1.522-5.871-4.032-7.751-6.92         c-1.688,2.623-3.706,5.75-6.623,8.39c-2.947,2.661-6.657,4.993-11.265,6.009c-4.153,0.912-8.307,0.887-11.745-0.392         c-3.791-1.407-7.101-4.329-8.58-9.789c-2.305,2.247-5.07,4.748-9.293,6.108c-5.135,1.655-10.266,0.806-13.645-1.718         c-1.792-1.333-3.453-3.413-4.154-6.044c-0.66-2.495-0.475-4.924,0.086-7.215c-2.238-3.928-1.979-8.19,0.457-10.385         c-2.915-5.236-1.279-12.053,5.239-13.304c0.308-2.622,0.855-5.063,2.584-7.19c1.718-2.119,4.606-4.018,7.877-3.908         c0.11-0.576,0.189-0.939,0.297-1.383c0.759-3.133,3.329-6.857,8.062-7.935c1.808-0.409,3.156,0.032,4.831,0.115         c2.031-2.223,3.393-4.831,6.77-6.227C306.341,327.246,309.862,329.576,313.304,331.699z"/>
						</g>
						<g style="opacity:0.3;">
							<g>
								<path style="fill:#FFFFFF;" d="M298.108,341.545c-3.575,2.803-6.81,4.92-8.516,8.541c-0.534,1.13-1.11,2.482-1.319,3.649          c-0.097,0.527,0.045,1.15-0.13,1.609c-0.889,0.036-4.374,0.455-3.555,2.154c0.446,0.922,1.569,0.192,2.584,0.002          c2.105-0.393,4.784,0.652,6.423,1.629c0.533,0.318,1.301,1.037,2.134,0.611c0.704-0.36,0.608-1.261-0.005-2.028          c-0.506-0.631-1.389-0.932-1.738-1.104c-1.13-0.555-2.472-0.95-4.012-1.299c0.599-6.577,7.618-9.39,12.281-14.352          c2.472-2.633,4.374-5.609,4.942-9.331c0.063-0.417,0.198-1.856-0.054-2.843c-0.581-0.121-1.182-0.19-1.81-0.202          c-0.342,1.023-0.23,2.87-0.365,3.575C304.216,336.128,301.541,338.858,298.108,341.545z"/>
							</g>
							<g>
								<path style="fill:#FFFFFF;" d="M316.01,338.024c-5.27,0.095-9.926,3.232-12.407,6.466c-0.579,0.756-1.761,2.433-0.815,2.936          c1.085,0.121,1.661-0.902,2.13-1.418c0.617-0.678,1.191-1.309,1.882-1.894c2.769-2.341,7.348-4.26,11.436-4.31          c2.008-0.026,3.857,0.398,5.781-0.098c1.348-0.351,1.943-1.064,2.74-1.525c0.151,0.807,0.558,1.248,1.099,1.125          c1.254-0.289,0.27-2.046,0.068-3.525c-0.077-0.566,0.086-1.364,0.167-2.084c0.083-0.779,0.101-1.666-0.788-1.593          c-0.666,0.057-0.736,0.75-0.961,1.602c-0.324,1.196-0.655,2.848-1.461,3.507c-1.326,1.089-3.354,1.072-4.62,0.835          c-2.726-0.509-6.229-2.764-6.934-6.368c-0.005,0.007-0.011,0.014-0.023,0.02c-0.531-0.331-1.069-0.664-1.619-0.987          c0.027,0.826,0.228,1.731,0.412,2.295C312.91,335.466,314.918,337.107,316.01,338.024z"/>
							</g>
							<g>
								<path style="fill:#FFFFFF;" d="M276.872,355.561c-1.236,1.352-2.591,2.647-3.685,4.037          c-2.598,3.283-5.153,8.889-1.022,13.519c-2.319,2.679-3.602,7.614-1.997,11.61c1.202,3.003,3.674,4.728,6.272,5.185          c-0.117,0.642,0.248,1.661,0.952,1.538c0.945-0.167,0.759-1.715,0.867-2.488c0.281-2.128,0.736-3.39,1.499-5.095          c0.221-0.488,1.252-1.929,0.558-2.573c-0.858-0.797-1.864,0.82-2.269,1.558c-0.862,1.571-1.337,3.055-1.499,4.813          c-1.945-0.77-3.814-1.725-4.786-4.001c-1.434-3.361-0.362-7.413,2.053-9.138c2.377,1.22,4.858,1.686,7.715,0.756          c4.178-1.369,6.16-4.691,6.673-7.951c0.122-0.781,0.459-3.475-0.934-3.208c-0.999,0.193-0.781,1.541-1.027,2.267          c-0.358,1.076-1.538,2.898-2.265,3.585c-1.704,1.62-4.642,2.685-6.997,2.335c-1.707-0.25-3.701-1.245-4.127-3.383          c-0.565-2.804,1.121-5.741,2.702-7.693c1.808-2.235,3.775-4.174,5.101-6.52c0.905-1.589,1.378-3.399,1.67-5.15          c0.376-2.216,0.437-5.183-0.479-7.832c-0.275,0.61-0.477,1.219-0.621,1.81c-0.108,0.445-0.187,0.807-0.297,1.383          c-0.013,0-0.031,0-0.047,0c0.122,2.281-0.043,4.446-0.849,6.391C279.402,352.837,278.072,354.233,276.872,355.561z"/>
							</g>
							<g>
								<path style="fill:#FFFFFF;" d="M343.809,348.075c-0.45,0.096-1.105-0.068-1.693-0.101c-3.057-0.175-5.27-1.33-7.292-3.198          c-0.748-0.688-1.806-2.185-2.704-1.81c-0.727,0.307-0.603,1.226,0.146,2.169c0.392,0.506,1.407,1.208,1.756,1.465          c1.871,1.388,4.115,2.511,5.966,3.069c-3.463,1.159-6.317,1.996-9.111,2.367c-2.634,0.35-5.103,0.074-7.834-0.259          c-2.303-0.284-4.802-0.875-7.006-1.723c-0.988-0.378-2.123-0.942-3.233-1.454c-0.756-0.346-2.85-1.409-3.541-0.982          c-1.229,0.749,1.063,2.253,1.551,2.545c2.308,1.359,5.432,1.977,7.607,2.727c-1.022,0.812-2.015,1.479-3.631,2.178          c-1.317,0.561-3.683,1.026-3.417,2.293c0.25,1.205,1.875,0.896,3.019,0.506c1.722-0.588,3.944-1.932,5.149-3.217          c0.457-0.487,0.608-1.146,1.101-1.456c0.392,0.233,1.006,0.034,1.328,0.401c-0.095,1.657-0.11,2.896-0.302,4.246          c-0.106,0.763-0.504,3.419-1.047,3.934c-0.369,0.355-1.321,0.728-2.094,0.948c-0.813,0.225-2.019,0.261-2.974,0.215          c-0.342-0.019-2.618-0.384-2.564,0.635c0.043,0.746,1.679,0.943,2.073,0.996c1.616,0.219,3.332-0.166,5.043-0.968          c-1.184,2.992-2.643,6.063-5.027,9.078c-1.544,1.959-3.604,4.007-5.567,5.937c-0.484,0.475-1.853,1.456-1.198,2.321          c0.734,0.959,2.695-0.887,3.044-1.157c1.065-0.842,1.657-1.398,2.44-2.168c0.277,1.434,0.572,2.634,0.702,4.206          c0.065,0.772-0.234,3.642,0.903,3.672c0.925,0.023,1.042-1.18,1.157-1.848c0.399-2.287,0.036-5.27-1.155-7.927          c4.84-6.308,7.933-13.52,8.535-22.013c4.638,0.457,10.266,0.276,16.662-1.551c2.958-0.851,5.739-2.187,8.343-3.594          c1.184-0.645,2.265-1.267,3.442-2.212c0.155-0.127,0.426-0.333,0.718-0.58c-1.247-0.389-2.596-0.538-4.102-0.231          c0-0.002,0.002-0.002,0-0.005c-1.009,0.56-2.033,1.075-3.098,1.602C345.243,347.452,344.504,347.929,343.809,348.075z"/>
							</g>
							<g>
								<path style="fill:#FFFFFF;" d="M304.655,371.091c0.808-0.258,4.066-0.699,3.883-1.983c-0.16-1.127-1.792-1.032-2.765-0.866          c-4.221,0.731-6.871,3.221-9.199,4.975c-0.029-0.083,0.034-0.119,0.029-0.191c1.434-2.338,2.841-4.782,4.946-7.307          c1.346-1.612,3.109-3.178,4.725-4.833c0.446-0.455,1.335-1.246,0.939-1.958c-0.592-1.073-3.152,0.797-3.683,1.175          c-1.198,0.861-2.197,1.737-2.972,2.523c-4.831,4.899-7.785,11.07-9.232,17.529c-0.128,0.574-0.135,1.245-0.439,1.801          c-1.126-2.326-3.15-3.755-5.477-3.87c-0.882-0.043-2.078,0.207-1.738,1.202c0.214,0.648,1.421,0.678,2.069,0.995          c2.013,0.991,4.05,3.136,4.395,6.524c-0.23,1.11-0.554,2.406-0.497,3.746c0.768-0.657,1.474-1.326,2.139-1.972          c0.009,0.027,0.023,0.056,0.029,0.09c0.367-2.51,0.716-5.002,1.616-7.436C295.017,376.919,298.653,373.013,304.655,371.091z          "/>
							</g>
							<g>
								<path style="fill:#FFFFFF;" d="M333.297,362.224c0.369-0.701,1.31-2.303,0.889-3.056c-0.232-0.413-1.029-0.43-1.468-0.142          c-1.148,0.755-2.035,2.205-2.693,3.433c-2.019,3.798-3.055,8.825-3.213,13.411c-0.482-0.572-0.959-1.144-1.58-1.553          c-1.121-0.73-3.28-1.538-5.207-0.887c-0.358,0.119-1.245,0.644-1.092,1.216c0.18,0.687,1.403,0.403,2.26,0.516          c1.371,0.18,3.039,1.116,3.906,1.965c0.619,0.608,1.623,1.806,1.952,2.911c0.266,0.887,0.583,3.147,1.056,4.624          c0.148,0.466,0.299,1.166,0.502,1.81c0.486-0.725,0.946-1.432,1.38-2.107c0.002,0,0.002,0,0.004,0          c-0.549-2.335-0.963-4.883-1.103-7.132C328.493,370.947,330.943,366.751,333.297,362.224z"/>
							</g>
							<g>
								<path style="fill:#FFFFFF;" d="M352.289,378.923c-0.855-0.488-1.83-0.799-2.647-1.369c-0.909-0.628-1.772-1.583-2.614-2.389          c-2.499-2.386-5.227-6.02-6.292-10.438c-0.54-2.237-0.401-4.623-0.063-6.53c0.117-0.635,0.425-1.725,0.162-2.08          c-0.234-0.324-0.923-0.259-1.274,0.041c-1.956,1.646-1.772,5.988-0.968,9.073c1.18,4.541,4.255,8.589,6.621,10.608          c-2.317-0.561-5.664-1.069-8.751,0.315c-0.617,0.275-1.643,0.977-1.407,1.648c0.275,0.788,2.146,0.513,3.19,0.455          c1.189-0.07,2.501-0.214,3.525-0.209c5.779,0.018,10.399,2.449,14.555,5.113c0.403,0.261,0.835,0.66,1.312,0.907          c0.113-0.565,0.173-1.157,0.18-1.787c0.009-0.005,0.016-0.009,0.02-0.014c-0.975-0.77-1.972-1.378-2.978-1.956          C354.018,379.828,353.136,379.402,352.289,378.923z"/>
							</g>
							<g>
								<path style="fill:#FFFFFF;" d="M357.67,362.5c-1.502,1.798-3.402,3.411-6.011,4.455c-0.408,0.163-0.932,0.332-1.337,0.429          c-0.943,0.224-3.991-0.004-3.958,1.178c0.05,1.808,3.823,1.096,4.962,0.808c3.872-0.989,6.276-3.42,7.96-6.013          C358.755,363.053,358.214,362.775,357.67,362.5z"/>
							</g>
							<g>
								<path style="fill:#FFFFFF;" d="M316.983,389.819c-1.652,0.689-3.895,1.472-5.437,1.745c-3.35,0.583-6.887,0.02-9.154-0.943          c-1.378-0.59-2.053-1.076-3.28-2.454c0.153-0.959,2.175-1.774,1.454-2.956c-0.212-0.347-0.806-0.344-1.249-0.153          c-0.725,0.317-1.445,1.619-1.889,2.454c-0.477,0.903-1.092,1.943-0.7,2.708c0.687,0.106,1.033-0.898,1.459-0.925          c0.41,0.538,0.698,1,0.957,1.258c3.269,3.287,10.014,4.5,15.88,2.94c2.398-0.642,3.631-1.297,5.196-2.494          c0.813-0.628,2.217-1.448,1.61-2.454C321.224,387.536,318.131,389.339,316.983,389.819z"/>
							</g>
						</g>
					</g>
				</g>
				<g>
					<g>
						<g>
							<path style="fill:#FFD875;" d="M209.822,250.211l-1.029,4.425c-0.113,0.494-0.009,0.971,0.311,1.342         c0.338,0.391,0.889,0.627,1.439,0.612c0.768-0.017,1.349-0.477,1.515-1.203l1.499-6.43l3.251-1.266         c0.324,0.794,0.644,1.591,0.961,2.388l0.439,1.08c0.266,0.663,0.9,1.062,1.646,1.045c0.583-0.016,1.128-0.286,1.423-0.706         c0.27-0.389,0.313-0.867,0.119-1.343l-1.72-4.277c0.095-0.293,0.097-0.585,0.007-0.872c-0.11-0.348-0.365-0.657-0.709-0.872         l-2.872-7.145c-0.27-0.666-0.898-1.067-1.646-1.051c-0.572,0.015-1.092,0.268-1.396,0.679         c-0.221,0.303-0.306,0.67-0.236,1.047c-0.086,0.137-0.142,0.286-0.176,0.444l-1.99,8.526l-1.164,0.449         c-0.876,0.346-1.33,1.181-1.074,1.988C208.604,249.657,209.192,250.124,209.822,250.211z M214.449,245.156l0.491-2.116         l0.671,1.662C215.221,244.853,214.834,245.005,214.449,245.156z"/>
						</g>
						<g>
							<path style="fill:#FFD875;" d="M233.884,246.685c-0.538-0.835-1.632-1.011-2.415-0.343         c-6.54,5.598-12.607,11.78-18.035,18.371c-0.484,0.586-0.506,1.305-0.059,1.873c0.479,0.61,1.34,0.832,2.035,0.528         c0.252-0.109,0.473-0.278,0.66-0.502c5.266-6.399,11.153-12.393,17.485-17.818         C234.309,248.151,234.262,247.272,233.884,246.685z"/>
						</g>
					</g>
					<g>
						<g>
							<path style="fill:#FFD875;" d="M257.639,358.358c-0.606-0.788-1.709-0.877-2.434-0.145         c-6.071,6.102-11.621,12.757-16.499,19.766c-0.435,0.622-0.401,1.34,0.09,1.869c0.527,0.572,1.403,0.722,2.073,0.362         c0.239-0.128,0.448-0.315,0.612-0.554c4.739-6.801,10.124-13.249,16.002-19.167         C258.182,359.788,258.065,358.912,257.639,358.358z"/>
						</g>
						<g>
							<path style="fill:#FFD875;" d="M248.128,357.964c-0.513-3.756-3.383-5.359-6.216-5.665c0.736-0.669,1.412-1.406,1.997-2.165         c0.846-1.099,1.695-2.311,1.963-3.907c0.205-1.189-0.036-2.507-0.612-3.357c-0.873-1.301-2.515-1.988-4.737-1.988         c-0.891,0-1.835,0.11-2.819,0.324c-1.027,0.225-4.417,1.066-5.025,2.478c-0.252,0.586-0.153,1.595,0.32,3.367         c0.322,1.227,0.678,2.453,0.939,3.28l0.651,2.055c1.517,4.773,2.818,8.894,4.678,13.182c0.457,1.046,1.11,2.25,2.132,2.25         l0.11-0.005c0.63-0.059,1.243-0.609,1.734-1.049l0.198-0.177C246.095,364.277,248.639,361.705,248.128,357.964z          M243.436,356.823c0.936,0.558,1.776,1.871,1.481,3.196c-0.333,1.529-1.661,2.824-2.967,3.842         c-0.482-2.242-1.175-4.895-1.992-7.617C241.419,356.162,242.664,356.365,243.436,356.823z M242.333,345.641         c-0.144,0.762-1.033,2.085-1.848,3.059c-0.673,0.802-1.524,1.523-2.319,2.169c-0.759-2.053-1.578-4.012-2.447-5.842         c1.488-0.551,3.399-1.072,4.818-1.072c0.558,0,1.294,0.087,1.63,0.486C242.376,344.7,242.434,345.104,242.333,345.641z          M241.399,367.271L241.399,367.271v0.011V367.271z"/>
						</g>
					</g>
					<g>
						<g>
							<path style="fill-rule:evenodd;clip-rule:evenodd;fill:#FFD875;" d="M351.949,286.112c1.61-0.671,2.476-3.147,4.32-2.707         c1.907,0.459,1.214,3.341,1.891,5.077c1.697-0.826,3.028-2.555,5.029-2.05c2.152,0.543,4.005,4.896,4.061,6.883         c-1.085-0.87-1.549-1.455-2.346-2.513c-0.482-0.635-1.232-2.394-2.143-2.635c-1.968-0.517-3.075,2.641-4.896,2.245         c-1.758-0.379-1.731-2.998-2.137-4.798c-1.742,0.137-2.542,3.668-4.34,3.532c-1.616-0.121-1.517-1.732-1.621-3.351         c-1.934,2.208-2.773,9.124-5.946,8.664c-1.943-0.279-1.918-2.407-2.123-4.125c-1.164,2.381-2.22,9.782-5.59,7.91         c-1.992-1.105-2.116-5.885-1.472-9.639c0.383-2.25,1.144-5.897,2.987-5.823c2.143,0.084,2.055,2.338,2.366,3.846         c1.389-1.341,0.853-5.632,2.611-6.405c2.375,0.038,1.859,2.442,1.923,4.248c0.063,1.835,0.193,3.5,0.279,4.553         c1.378-1.351,3.041-7.935,5.167-8.339C352.647,280.176,352.321,283.82,351.949,286.112z M337.363,294.53         c0.786-1.333,1.11-3.366,1.857-4.747c-0.88-0.823-0.763-2.239-1.288-3.277C337.492,289.331,337.035,292.164,337.363,294.53z"/>
						</g>
						<g>
							<path style="fill:#FFD875;" d="M365.612,324.15c-0.018-0.119-0.077-0.226-0.162-0.308l-0.099-0.093         c-0.302-0.298-0.828-0.711-1.565-0.458c-0.115,0.039-0.205,0.117-0.277,0.219c-0.743,1.171-0.491,2.445-0.27,3.569         c0.09,0.438,0.171,0.85,0.189,1.215c0.437,12.138-8.152,23.953-19.978,27.486c-2.301,0.688-4.705,1.035-7.143,1.035         c-8.883,0-19.233-4.942-22.315-15.984l-0.124-0.415c-3.228-10.485-1.83-20.451,4.041-28.82         c2.938-4.184,10.885-7.587,17.72-7.587c1.684,0,3.194,0.204,4.511,0.603l-0.133,0.244c-0.603,1.125-1.173,2.185-1.889,3.291         c-0.173,0.27-0.432,0.561-0.707,0.868c-0.855,0.962-1.92,2.159-1.4,3.872c0.072,0.236,0.293,0.393,0.545,0.379         c1.702-0.095,2.461-1.607,3.073-2.825c0.191-0.383,0.376-0.746,0.574-1.042c0.167-0.265,0.34-0.533,0.511-0.804         c0.682-1.077,1.382-2.186,2.267-2.989c8.865,2.528,16.193,14.324,15.741,25.437c-0.025,0.637-0.115,1.291-0.202,1.924         c-0.23,1.655-0.448,3.222,0.468,4.364c0.137,0.168,0.367,0.237,0.572,0.176c1.382-0.404,1.639-2.119,1.819-3.316         c2.049-13.886-7.413-27.852-17.152-31.119c0.466-0.713,1.009-1.559,1.528-2.445c0.104-0.176,0.225-0.362,0.354-0.555         c0.56-0.85,1.267-1.912,1.015-3.167c-0.029-0.146-0.115-0.271-0.236-0.35c-0.124-0.08-0.281-0.101-0.419-0.065         c-1.925,0.493-2.787,2.206-3.62,3.863c-0.383,0.756-0.745,1.48-1.196,2.062c-1.558-0.628-3.37-0.944-5.399-0.944         c-7.535,0-17.184,4.588-21.065,10.017c-8.195,11.455-6.497,21.967-5.779,24.915c4.572,18.868,16.623,22.823,25.926,22.823         c3.472,0,7.132-0.539,10.874-1.604C360.954,353.428,367.654,337.309,365.612,324.15z"/>
						</g>
					</g>
				</g>
			</g>
		</g>
	</g>
	<g>
		<g>
			<g>
				<path style="fill:#FFD875;" d="M84.663,386.509c-4.106-1.682-16.159-10.486-14.48-14.588c1.673-4.104,16.448-1.939,20.554-0.274      c4.1,1.681,6.069,6.361,4.394,10.47C93.457,386.221,88.765,388.18,84.663,386.509"/>
			</g>
			<g>
				<path style="fill:#E24E6A;" d="M63.727,369.307l0.014-0.048c0.54-1.31,2.031-1.935,3.343-1.404l5.66,2.312l-1.959,4.795      l-5.657-2.312C63.812,372.117,63.184,370.62,63.727,369.307"/>
			</g>
			<g>
				<path style="fill:#E24E6A;" d="M204.048,427.829c0.826-1.983,3.089-2.92,5.079-2.1l7.049,2.924      c1.979,0.813,2.922,3.082,2.096,5.063c-0.808,1.983-3.08,2.92-5.056,2.107l-7.067-2.924      C204.172,432.077,203.228,429.808,204.048,427.829"/>
			</g>
			<g>
				<polygon style="fill:#14334F;" points="208.089,437.498 214.161,422.635 173.586,406.055 167.508,420.906     "/>
			</g>
			<g>
				<polygon style="fill:#14334F;" points="163.183,419.141 169.259,404.283 90.744,371.652 84.668,386.512     "/>
			</g>
			<g>

					<rect x="160.357" y="410.259" transform="matrix(0.3785 -0.9256 0.9256 0.3785 -277.2471 412.3039)" style="fill:#FFD875;" width="16.053" height="4.67"/>
			</g>
			<g>

					<rect x="198.191" y="431.03" transform="matrix(0.3783 -0.9257 0.9257 0.3783 -270.147 462.1605)" style="fill:#FFD875;" width="21.606" height="2.336"/>
			</g>
			<g>
				<polygon style="fill:#FFD875;" points="205.988,442.64 207.258,439.542 164.419,422.041 163.151,425.13     "/>
			</g>
		</g>
		<g>
			<g>
				<g>
					<path style="fill-rule:evenodd;clip-rule:evenodd;fill:#FFFFFF;" d="M202.877,429.186c0.862,3.906-8.577,1.166-7.911-1.742       c0.783-3.413,6.522-0.417,7.794,1.373C202.841,428.93,202.841,429.049,202.877,429.186z"/>
				</g>
				<g>
					<path style="fill-rule:evenodd;clip-rule:evenodd;fill:#FFFFFF;" d="M192.082,424.276c0.259,3.233-7.819,1.371-6.459-1.693       C186.659,420.256,191.9,422.041,192.082,424.276z"/>
				</g>
			</g>
			<g>
				<g>
					<path style="fill-rule:evenodd;clip-rule:evenodd;fill:#FFFFFF;" d="M90.253,372.822c2.211,0.583,5.527,1.988,5.171,3.62       c-0.464,2.101-2.661,1.081-4.404,0.457c-1.738-0.624-3.87-1.454-3.381-3.109C88.171,371.986,89.389,372.592,90.253,372.822z"/>
				</g>
				<g>
					<path style="fill-rule:evenodd;clip-rule:evenodd;fill:#FFFFFF;" d="M99.15,380.485c1.677,0.311,3.111,1.364,2.616,2.751       c-0.844,2.373-6.186,0.504-5.232-1.788C96.897,380.584,97.77,380.226,99.15,380.485z"/>
				</g>
			</g>
		</g>
	</g>
</g>















</svg>
